<svg width="977" height="841" viewBox="0 0 977 841" fill="none" xmlns="http://www.w3.org/2000/svg">
    <g clip-path="url(#clip0)">
        <path opacity="0.1" d="M890.34 455.97C852.39 520.68 857.56 607.69 872.34 676.06C877.28 698.95 883.03 723.06 877.91 748.94C871.65 780.54 850.61 805.69 829.52 820.25C791.08 846.8 747.78 846.99 716.78 820.75C689.99 798.07 672.85 757.91 645.46 736.48C599.63 700.63 535.38 724.3 479.25 759.89C439.54 785.07 395.77 816.84 359.87 800.14C334.61 788.39 319.39 754.05 312.71 716.47C309.48 698.33 307.71 678.47 299.76 664.76C295.03 656.61 288.42 651.23 281.55 646.85C218.78 606.85 132.09 643.24 71.7 597.77C30.91 567.06 8.63999 502.35 2.26999 432.77C-4.10001 363.19 3.71999 288.44 13.13 214.77C19.82 162.44 28.59 106.37 54.87 63.36C82.67 17.86 125.51 -3.09999 162.31 0.360006C199.11 3.82001 230.65 28.36 257.66 58.54C291.41 96.28 321.57 144.74 365.98 156.21C396.23 164.02 429.64 153.54 462.06 147.32C516.25 136.92 569.45 138.46 622.26 140.82C672.82 143.08 723.67 146.16 770.46 164.37C803.57 177.26 828.63 205.01 859.46 222.75C879.53 234.31 902.41 235.35 921.01 250.94C943.93 270.15 963.38 306.09 953.15 352.24C943.42 396.15 910.52 421.62 890.34 455.97Z" fill="#455A64"/>
        <path d="M181.16 534.39C171.65 546.22 122.66 563.29 122.66 563.29C122.66 563.29 128.82 511.77 138.33 499.95C142.911 494.313 149.537 490.718 156.76 489.953C163.984 489.187 171.216 491.312 176.877 495.864C182.538 500.416 186.166 507.024 186.969 514.243C187.771 521.463 185.683 528.706 181.16 534.39Z" fill="#6C63FF"/>
        <path d="M181.16 534.39C171.65 546.22 122.66 563.29 122.66 563.29C122.66 563.29 128.82 511.77 138.33 499.95C142.911 494.313 149.537 490.718 156.76 489.953C163.984 489.187 171.216 491.312 176.877 495.864C182.538 500.416 186.166 507.024 186.969 514.243C187.771 521.463 185.683 528.706 181.16 534.39Z" fill="#FC6681"/>
        <path d="M909.65 644.31C909.65 644.31 908.85 643.24 907.74 642.04L908.06 641.93C908.06 641.93 893.78 606.24 896.96 591.17C900.14 576.1 884.27 539.62 884.27 539.62C884.27 539.62 860.86 491.68 871.94 453.42C873.205 448.914 874.161 444.326 874.8 439.69C878.11 417.03 876.94 412.36 871.39 404.08L870.78 403.19C871.465 402.523 872.006 401.724 872.37 400.84C877.13 388.15 850.17 365.15 857.34 343.73C863.96 323.88 846.73 282.92 844.17 277.03L843.88 276.36L843.02 276.64C843.164 271.525 845.178 266.64 848.68 262.91L848.84 262.75C851.22 260.56 854.11 258.95 856.34 256.6L856.47 256.45C856.69 256.24 856.92 256.03 857.13 255.81C859.34 253.49 860.85 250.05 859.65 247.07C858.56 244.35 855.5 242.69 854.78 239.85C854.607 238.573 854.5 237.288 854.46 236C853.88 232 849.99 229.49 846.46 227.51C842.07 225.03 837.46 222.51 832.39 222.45C825.53 222.45 819.39 227.05 812.58 227.62C810.26 227.82 807.85 227.54 805.65 228.31C803.973 229.008 802.433 229.996 801.1 231.23C800.316 231.846 799.575 232.515 798.88 233.23C797.34 234.67 796.03 236.37 796.09 238.41C796.201 239.9 796.899 241.284 798.03 242.26C795.835 245.246 794.32 248.676 793.593 252.309C792.865 255.943 792.942 259.692 793.817 263.292C794.693 266.893 796.347 270.258 798.662 273.152C800.978 276.045 803.899 278.396 807.22 280.04C807.3 280.59 807.38 281.15 807.46 281.74C808.46 289.25 809.05 299.87 806.38 308.19C794.99 314.06 777.24 323.63 774.06 327.88C773.813 328.24 773.648 328.649 773.575 329.079C773.503 329.509 773.525 329.949 773.64 330.37C773.55 330.76 773.53 331.163 773.58 331.56C771.09 332.13 767.78 331.56 763.75 327.88C754.23 319.16 724.1 292.98 724.1 292.98C724.1 292.98 710.62 259.67 701.1 265.98C691.58 272.29 712.2 303.26 712.2 303.26L757.34 351.66C757.34 351.66 758.93 361.97 775.58 356.42C781.08 354.59 786.05 352.84 790.25 351.33L791.25 352.18C787.5 374.12 785.56 403.36 799.39 411.94C800.473 413.376 801.255 415.015 801.69 416.76C801.62 417.02 801.55 417.29 801.49 417.55C800.43 421.929 799.761 426.393 799.49 430.89C796.883 436.851 795.682 443.331 795.98 449.83L790.68 525.34C790.68 525.34 789.89 541.99 795.44 554.68C800.99 567.37 818.44 630.82 806.54 635.58L807.67 635.73C804.26 639.24 798.52 644.56 794.15 645.61C787.51 647.19 789.37 657.37 804.09 659.07C818.81 660.77 820.58 660.63 830.93 652C840.05 644.4 841.5 641 841.71 640.27L842.23 640.34C842.23 640.34 836.68 619.72 842.23 611C847.78 602.28 829.55 549.15 829.55 549.15C829.397 542.361 829.647 535.569 830.3 528.81C833.1 536.14 835.1 541.22 835.1 541.22C835.1 541.22 839.86 564.22 845.41 568.22C850.96 572.22 880.31 626.91 875.55 650.7L875 653.47L876.34 653.08H876.46C874.63 657.61 871.3 664.77 867.62 667.4C862.07 671.4 867.62 680.09 881.9 676.12C896.18 672.15 897.76 671.36 904.11 659.47C910.46 647.58 909.65 644.31 909.65 644.31Z" fill="url(#paint0_linear)"/>
        <path d="M804.55 432.55L801.07 428.26C797.511 434.873 795.814 442.328 796.16 449.83L790.98 523.66C790.98 523.66 790.2 539.94 795.63 552.35C801.06 564.76 818.12 626.79 806.49 631.44L841.34 636.15C841.34 636.15 835.91 615.99 841.34 607.46C846.77 598.93 828.93 546.98 828.93 546.98C828.93 546.98 827.38 503.56 842.11 493.47C856.84 483.38 804.55 432.55 804.55 432.55Z" fill="#555388"/>
        <path d="M810.43 628.53C810.43 628.53 800.86 639.71 794.38 641.26C787.9 642.81 789.71 652.75 804.1 654.42C818.49 656.09 820.22 655.95 830.35 647.51C840.48 639.07 840.93 635.9 840.93 635.9C840.93 635.9 838.93 628.4 836.51 628.24C834.09 628.08 810.43 628.53 810.43 628.53Z" fill="#603556"/>
        <path opacity="0.1" d="M806.88 434.88L801.08 428.26C797.521 434.873 795.824 442.328 796.17 449.83L790.99 523.66C790.99 523.66 790.21 539.94 795.64 552.35C801.07 564.76 818.13 626.79 806.5 631.44L841.34 636.15C841.34 636.15 835.91 615.99 841.34 607.46C846.77 598.93 828.93 546.98 828.93 546.98C828.93 546.98 827.38 503.56 842.11 493.47C856.84 483.38 806.88 434.88 806.88 434.88Z" fill="black"/>
        <path d="M841.4 536.07C841.4 536.07 831.71 345.86 791.93 278.54C791.93 278.54 762.76 225.26 738.38 209.72V203.58C698.6 176.04 649.65 203.58 649.65 203.58V206.3L639.45 214.8L593.52 214.64C591.441 212.135 588.836 210.119 585.889 208.736C582.941 207.353 579.725 206.637 576.47 206.64H366.89C363.827 206.637 360.796 207.27 357.99 208.499C355.184 209.728 352.664 211.526 350.59 213.78H302.89C302.89 213.78 300.08 210.51 292.69 207.22V203.58C252.91 176.04 203.96 203.58 203.96 203.58V210.97C202.797 211.738 201.764 212.687 200.9 213.78C200.9 213.78 160.61 240.78 151.43 274.46C151.43 274.46 101.96 422.86 100.94 539.13C99.92 655.4 144.8 671.72 168.25 674.78C191.7 677.84 233.52 673.78 274.32 570.78L291.66 510.61C291.66 510.61 294.72 474.91 331.44 497.35C368.16 519.79 400.79 485.11 400.79 485.11H538.49C538.49 485.11 584.34 513.63 626.2 491.15C626.2 491.15 642.52 469.73 657.82 542.15C657.82 542.15 704.74 691.06 777.15 675.76C849.56 660.46 841.4 536.07 841.4 536.07Z" fill="url(#paint1_linear)"/>
        <path d="M209.18 219.08V208.08C209.18 208.08 257.18 181.08 296.18 208.08V218.08L209.18 219.08Z" fill="#535461"/>
        <path d="M646.18 219.08V208.08C646.18 208.08 694.18 181.08 733.18 208.08V218.08L646.18 219.08Z" fill="#535461"/>
        <path opacity="0.1" d="M209.18 219.08V208.08C209.18 208.08 257.18 181.08 296.18 208.08V218.08L209.18 219.08Z" fill="black"/>
        <path opacity="0.1" d="M646.18 219.08V208.08C646.18 208.08 694.18 181.08 733.18 208.08V218.08L646.18 219.08Z" fill="black"/>
        <path d="M353.18 218.08H306.18C306.18 218.08 294.18 204.08 254.18 205.08C214.18 206.08 206.18 218.08 206.18 218.08C206.18 218.08 166.68 244.58 157.68 277.58C157.68 277.58 109.18 423.08 108.18 537.08C107.18 651.08 151.18 667.08 174.18 670.08C197.18 673.08 238.18 669.08 278.18 568.08L295.18 509.08C295.18 509.08 298.18 474.08 334.18 496.08C370.18 518.08 402.18 484.08 402.18 484.08H537.18C537.18 484.08 582.18 512.08 623.18 490.08C623.18 490.08 639.18 469.08 654.18 540.08C654.18 540.08 700.18 686.08 771.18 671.08C842.18 656.08 834.18 534.08 834.18 534.08C834.18 534.08 824.68 347.58 785.68 281.58C785.68 281.58 748.18 213.08 723.18 210.08C723.18 210.08 669.18 200.08 648.18 209.08L636.18 219.08L353.18 218.08Z" fill="#455A64"/>
        <path d="M244.18 403.08C292.229 403.08 331.18 364.129 331.18 316.08C331.18 268.031 292.229 229.08 244.18 229.08C196.131 229.08 157.18 268.031 157.18 316.08C157.18 364.129 196.131 403.08 244.18 403.08Z" fill="#E2E2EC"/>
        <path d="M698.18 403.08C746.229 403.08 785.18 364.129 785.18 316.08C785.18 268.031 746.229 229.08 698.18 229.08C650.131 229.08 611.18 268.031 611.18 316.08C611.18 364.129 650.131 403.08 698.18 403.08Z" fill="#E2E2EC"/>
        <path d="M259.34 296.68L247.74 306.94C246.758 307.805 245.494 308.282 244.185 308.282C242.876 308.282 241.612 307.805 240.63 306.94L229.01 296.68C228.442 296.179 227.986 295.564 227.672 294.875C227.358 294.185 227.194 293.437 227.19 292.68V264.45C227.193 263.025 227.761 261.659 228.769 260.652C229.778 259.645 231.145 259.08 232.57 259.08H255.82C256.527 259.079 257.227 259.217 257.88 259.487C258.534 259.757 259.127 260.153 259.627 260.653C260.127 261.153 260.523 261.746 260.793 262.4C261.063 263.053 261.201 263.753 261.2 264.46V292.66C261.194 293.424 261.025 294.177 260.704 294.871C260.383 295.564 259.918 296.181 259.34 296.68V296.68Z" fill="#535461"/>
        <path d="M259.34 335.47L247.74 325.22C246.758 324.355 245.494 323.878 244.185 323.878C242.876 323.878 241.612 324.355 240.63 325.22L229.01 335.48C228.442 335.981 227.986 336.596 227.672 337.285C227.358 337.975 227.194 338.723 227.19 339.48V367.68C227.189 368.387 227.327 369.087 227.597 369.74C227.867 370.394 228.263 370.987 228.763 371.487C229.263 371.987 229.856 372.383 230.51 372.653C231.163 372.923 231.863 373.061 232.57 373.06H255.82C256.526 373.061 257.225 372.923 257.878 372.654C258.531 372.385 259.124 371.989 259.624 371.491C260.123 370.992 260.52 370.399 260.79 369.747C261.061 369.095 261.2 368.396 261.2 367.69V339.49C261.194 338.726 261.025 337.973 260.704 337.279C260.383 336.586 259.918 335.969 259.34 335.47V335.47Z" fill="#535461"/>
        <path d="M224.79 331.26L235.05 319.64C235.915 318.658 236.392 317.394 236.392 316.085C236.392 314.776 235.915 313.512 235.05 312.53L224.79 300.91C224.289 300.342 223.674 299.887 222.984 299.573C222.295 299.259 221.547 299.095 220.79 299.09H192.59C191.165 299.093 189.799 299.661 188.792 300.669C187.785 301.678 187.22 303.045 187.22 304.47V327.72C187.219 328.427 187.357 329.127 187.627 329.78C187.897 330.434 188.293 331.027 188.793 331.527C189.293 332.027 189.886 332.423 190.54 332.693C191.193 332.963 191.893 333.101 192.6 333.1H220.8C221.557 333.092 222.304 332.924 222.992 332.607C223.679 332.29 224.292 331.831 224.79 331.26V331.26Z" fill="#535461"/>
        <path d="M263.58 331.26L253.34 319.63C252.473 318.649 251.995 317.384 251.995 316.075C251.995 314.766 252.473 313.501 253.34 312.52L263.6 300.9C264.101 300.332 264.716 299.876 265.405 299.562C266.095 299.248 266.843 299.084 267.6 299.08H295.8C296.507 299.079 297.207 299.217 297.86 299.487C298.514 299.757 299.107 300.153 299.607 300.653C300.107 301.153 300.503 301.746 300.773 302.4C301.043 303.053 301.181 303.753 301.18 304.46V327.71C301.181 328.416 301.043 329.115 300.774 329.768C300.505 330.421 300.109 331.014 299.611 331.514C299.112 332.013 298.519 332.41 297.867 332.68C297.215 332.951 296.516 333.09 295.81 333.09H267.61C266.847 333.089 266.093 332.925 265.398 332.61C264.703 332.294 264.083 331.834 263.58 331.26Z" fill="#535461"/>
        <path d="M229.18 252.08H259.18L244.18 239.08L229.18 252.08Z" stroke="#535461" stroke-width="2" stroke-miterlimit="10"/>
        <path d="M229.18 380.08H259.18L244.18 393.08L229.18 380.08Z" stroke="#535461" stroke-width="2" stroke-miterlimit="10"/>
        <path d="M180.18 301.08V331.08L167.18 316.08L180.18 301.08Z" stroke="#535461" stroke-width="2" stroke-miterlimit="10"/>
        <path d="M308.18 301.08V331.08L321.18 316.08L308.18 301.08Z" stroke="#535461" stroke-width="2" stroke-miterlimit="10"/>
        <path d="M362.18 474.08C396.974 474.08 425.18 445.874 425.18 411.08C425.18 376.286 396.974 348.08 362.18 348.08C327.386 348.08 299.18 376.286 299.18 411.08C299.18 445.874 327.386 474.08 362.18 474.08Z" fill="#E2E2EC"/>
        <path d="M360.18 443.08C383.376 443.08 402.18 424.276 402.18 401.08C402.18 377.884 383.376 359.08 360.18 359.08C336.984 359.08 318.18 377.884 318.18 401.08C318.18 424.276 336.984 443.08 360.18 443.08Z" fill="#535461"/>
        <path d="M580.18 474.08C614.974 474.08 643.18 445.874 643.18 411.08C643.18 376.286 614.974 348.08 580.18 348.08C545.386 348.08 517.18 376.286 517.18 411.08C517.18 445.874 545.386 474.08 580.18 474.08Z" fill="#E2E2EC"/>
        <path d="M578.18 443.08C601.376 443.08 620.18 424.276 620.18 401.08C620.18 377.884 601.376 359.08 578.18 359.08C554.984 359.08 536.18 377.884 536.18 401.08C536.18 424.276 554.984 443.08 578.18 443.08Z" fill="#535461"/>
        <path opacity="0.1" d="M360.18 429.08C375.644 429.08 388.18 416.544 388.18 401.08C388.18 385.616 375.644 373.08 360.18 373.08C344.716 373.08 332.18 385.616 332.18 401.08C332.18 416.544 344.716 429.08 360.18 429.08Z" stroke="black" stroke-width="2" stroke-miterlimit="10"/>
        <path opacity="0.1" d="M578.18 429.08C593.644 429.08 606.18 416.544 606.18 401.08C606.18 385.616 593.644 373.08 578.18 373.08C562.716 373.08 550.18 385.616 550.18 401.08C550.18 416.544 562.716 429.08 578.18 429.08Z" stroke="black" stroke-width="2" stroke-miterlimit="10"/>
        <path d="M473.18 436.08C483.121 436.08 491.18 428.021 491.18 418.08C491.18 408.139 483.121 400.08 473.18 400.08C463.239 400.08 455.18 408.139 455.18 418.08C455.18 428.021 463.239 436.08 473.18 436.08Z" fill="#E2E2EC"/>
        <path d="M445.67 361.93C447.84 361.93 449.6 360.17 449.6 358C449.6 355.83 447.84 354.07 445.67 354.07C443.5 354.07 441.74 355.83 441.74 358C441.74 360.17 443.5 361.93 445.67 361.93Z" fill="#E2E2EC"/>
        <path d="M460.39 361.93C462.56 361.93 464.32 360.17 464.32 358C464.32 355.83 462.56 354.07 460.39 354.07C458.22 354.07 456.46 355.83 456.46 358C456.46 360.17 458.22 361.93 460.39 361.93Z" fill="#E2E2EC"/>
        <path d="M458.43 380.58C460.6 380.58 462.36 378.82 462.36 376.65C462.36 374.48 460.6 372.72 458.43 372.72C456.26 372.72 454.5 374.48 454.5 376.65C454.5 378.82 456.26 380.58 458.43 380.58Z" fill="#E2E2EC"/>
        <path d="M472.18 381.08C474.389 381.08 476.18 379.289 476.18 377.08C476.18 374.871 474.389 373.08 472.18 373.08C469.971 373.08 468.18 374.871 468.18 377.08C468.18 379.289 469.971 381.08 472.18 381.08Z" fill="#E2E2EC"/>
        <path d="M485.91 380.58C488.08 380.58 489.84 378.82 489.84 376.65C489.84 374.48 488.08 372.72 485.91 372.72C483.74 372.72 481.98 374.48 481.98 376.65C481.98 378.82 483.74 380.58 485.91 380.58Z" fill="#E2E2EC"/>
        <path d="M452.54 371.75C454.71 371.75 456.47 369.99 456.47 367.82C456.47 365.65 454.71 363.89 452.54 363.89C450.37 363.89 448.61 365.65 448.61 367.82C448.61 369.99 450.37 371.75 452.54 371.75Z" fill="#E2E2EC"/>
        <path d="M465.18 372.08C467.389 372.08 469.18 370.289 469.18 368.08C469.18 365.871 467.389 364.08 465.18 364.08C462.971 364.08 461.18 365.871 461.18 368.08C461.18 370.289 462.971 372.08 465.18 372.08Z" fill="#E2E2EC"/>
        <path d="M478.18 372.08C480.389 372.08 482.18 370.289 482.18 368.08C482.18 365.871 480.389 364.08 478.18 364.08C475.971 364.08 474.18 365.871 474.18 368.08C474.18 370.289 475.971 372.08 478.18 372.08Z" fill="#E2E2EC"/>
        <path d="M491.8 371.75C493.97 371.75 495.73 369.99 495.73 367.82C495.73 365.65 493.97 363.89 491.8 363.89C489.63 363.89 487.87 365.65 487.87 367.82C487.87 369.99 489.63 371.75 491.8 371.75Z" fill="#E2E2EC"/>
        <path d="M472.18 362.08C474.389 362.08 476.18 360.289 476.18 358.08C476.18 355.871 474.389 354.08 472.18 354.08C469.971 354.08 468.18 355.871 468.18 358.08C468.18 360.289 469.971 362.08 472.18 362.08Z" fill="#E2E2EC"/>
        <path d="M486.18 362.08C488.389 362.08 490.18 360.289 490.18 358.08C490.18 355.871 488.389 354.08 486.18 354.08C483.971 354.08 482.18 355.871 482.18 358.08C482.18 360.289 483.971 362.08 486.18 362.08Z" fill="#E2E2EC"/>
        <path d="M497.69 361.93C499.86 361.93 501.62 360.17 501.62 358C501.62 355.83 499.86 354.07 497.69 354.07C495.52 354.07 493.76 355.83 493.76 358C493.76 360.17 495.52 361.93 497.69 361.93Z" fill="#E2E2EC"/>
        <path d="M328.68 225.08H323.68C318.986 225.08 315.18 228.886 315.18 233.58V254.58C315.18 259.274 318.986 263.08 323.68 263.08H328.68C333.374 263.08 337.18 259.274 337.18 254.58V233.58C337.18 228.886 333.374 225.08 328.68 225.08Z" fill="#E2E2EC"/>
        <path d="M620.68 225.08H615.68C610.986 225.08 607.18 228.886 607.18 233.58V254.58C607.18 259.274 610.986 263.08 615.68 263.08H620.68C625.374 263.08 629.18 259.274 629.18 254.58V233.58C629.18 228.886 625.374 225.08 620.68 225.08Z" fill="#E2E2EC"/>
        <path d="M699.18 287.08C712.435 287.08 723.18 276.335 723.18 263.08C723.18 249.825 712.435 239.08 699.18 239.08C685.925 239.08 675.18 249.825 675.18 263.08C675.18 276.335 685.925 287.08 699.18 287.08Z" fill="#535461"/>
        <path d="M648.18 338.08C661.435 338.08 672.18 327.335 672.18 314.08C672.18 300.825 661.435 290.08 648.18 290.08C634.925 290.08 624.18 300.825 624.18 314.08C624.18 327.335 634.925 338.08 648.18 338.08Z" fill="#535461"/>
        <path d="M752.18 335.08C765.435 335.08 776.18 324.335 776.18 311.08C776.18 297.825 765.435 287.08 752.18 287.08C738.925 287.08 728.18 297.825 728.18 311.08C728.18 324.335 738.925 335.08 752.18 335.08Z" fill="#535461"/>
        <path d="M703.18 388.08C716.435 388.08 727.18 377.335 727.18 364.08C727.18 350.825 716.435 340.08 703.18 340.08C689.925 340.08 679.18 350.825 679.18 364.08C679.18 377.335 689.925 388.08 703.18 388.08Z" fill="#535461"/>
        <path d="M574.43 211.08H368.93C356.918 211.08 347.18 220.818 347.18 232.83V322.33C347.18 334.342 356.918 344.08 368.93 344.08H574.43C586.442 344.08 596.18 334.342 596.18 322.33V232.83C596.18 220.818 586.442 211.08 574.43 211.08Z" fill="#E2E2EC"/>
        <path d="M684.68 273.08L698.68 249.08L713.68 273.08H684.68Z" stroke="#E2E2EC" stroke-width="2" stroke-miterlimit="10"/>
        <path d="M660.68 303.08H635.68V325.08H660.68V303.08Z" stroke="#E2E2EC" stroke-width="2" stroke-miterlimit="10"/>
        <path d="M752.18 325.08C759.912 325.08 766.18 318.812 766.18 311.08C766.18 303.348 759.912 297.08 752.18 297.08C744.448 297.08 738.18 303.348 738.18 311.08C738.18 318.812 744.448 325.08 752.18 325.08Z" stroke="#E2E2EC" stroke-width="2" stroke-miterlimit="10"/>
        <path d="M691.68 352.83L714.18 375.33" stroke="#E2E2EC" stroke-width="2" stroke-miterlimit="10"/>
        <path d="M714.68 352.83L691.68 374.83" stroke="#E2E2EC" stroke-width="2" stroke-miterlimit="10"/>
        <path d="M876.28 644.64C876.28 644.64 871.63 658.64 866.2 662.48C860.77 666.32 866.2 674.89 880.2 671.01C894.2 667.13 895.71 666.36 901.91 654.73C908.11 643.1 907.34 640 907.34 640C907.34 640 902.69 633.8 900.34 634.57C897.99 635.34 876.28 644.64 876.28 644.64Z" fill="#603556"/>
        <path d="M847.59 296.46C847.59 296.46 784.78 331.35 799.51 321.27C809.41 314.5 808.81 296.53 807.35 285.46C806.89 282.01 806.35 279.23 806.02 277.67C805.83 276.79 805.71 276.3 805.71 276.3C805.71 276.3 836.17 258.02 834.46 269.01C834.46 269.11 834.46 269.21 834.41 269.31C834.263 270.044 834.186 270.791 834.18 271.54C833.97 282.84 847.59 296.46 847.59 296.46Z" fill="#C87486"/>
        <path d="M779.34 330.58C779.34 330.58 773.91 339.11 764.61 330.58C755.31 322.05 725.84 296.46 725.84 296.46C725.84 296.46 712.66 263.89 703.34 270.1C694.02 276.31 714.2 306.55 714.2 306.55L758.4 353.85C758.4 353.85 759.95 363.93 776.24 358.5C792.53 353.07 804.16 348.42 804.16 348.42L779.34 330.58Z" fill="#C87486"/>
        <path d="M905.75 637.66L874.75 648.52L873.44 648.9L873.98 646.19C878.63 622.93 849.98 569.42 844.51 565.54C839.04 561.66 834.41 539.15 834.41 539.15C834.41 539.15 824.25 487.97 822.7 477.15C822.31 474.44 820.89 472.28 819.17 469.3C816.576 464.784 814.56 459.959 813.17 454.94C809.76 442.94 801.81 421.64 804.73 409.59C805.32 407.14 802.91 413.4 803.73 411.01L804.2 409.69L866.98 401.15C868.022 402.415 868.996 403.733 869.9 405.1C874.65 412.15 874.34 412.15 875.34 425.55C874.908 433.634 873.767 441.665 871.93 449.55C863.48 487.18 882.54 537.55 882.54 537.55C882.54 537.55 898.05 573.22 894.95 587.95C891.85 602.68 905.75 637.66 905.75 637.66Z" fill="#555388"/>
        <path opacity="0.1" d="M869.9 405.09C860.61 416.74 801.1 425.79 801.84 422.09C802.063 420.813 801.967 419.501 801.56 418.27C802.151 415.812 802.866 413.386 803.7 411L804.17 409.68L866.98 401.15C868.021 402.412 868.996 403.727 869.9 405.09V405.09Z" fill="black"/>
        <path d="M842.94 280.15C842.94 280.15 817.34 287.93 810.34 305.77C803.34 323.61 815.65 324.58 815.65 324.58C815.65 324.58 793.65 382.58 799.48 412.78C799.48 412.78 802.58 416.66 801.81 420.53C801.04 424.4 866.17 414.33 870.81 401.92C875.45 389.51 849.1 367.03 856.08 346.09C863.06 325.15 842.94 280.15 842.94 280.15Z" fill="#607D8B"/>
        <path opacity="0.1" d="M834.41 270.87C834.366 271.103 834.289 271.329 834.18 271.54C833.12 273.54 829.75 271.35 830.92 274.35C826.42 278.87 825 287.92 818.13 287.92C814.394 287.931 810.705 287.093 807.34 285.47C806.88 282.02 806.34 279.24 806.01 277.68C809.01 275.9 833.01 262 834.45 269.02C834.562 269.633 834.548 270.262 834.41 270.87V270.87Z" fill="black"/>
        <path d="M818.12 286.38C831.822 286.38 842.93 275.272 842.93 261.57C842.93 247.868 831.822 236.76 818.12 236.76C804.418 236.76 793.31 247.868 793.31 261.57C793.31 275.272 804.418 286.38 818.12 286.38Z" fill="#C87486"/>
        <path opacity="0.1" d="M842.94 340.66L799.52 360.82C799.52 360.82 770.05 338.34 774.7 332.15C779.35 325.96 815.8 308.15 815.8 308.15C815.8 308.15 853.02 315.85 842.94 340.66Z" fill="black"/>
        <path d="M842.94 339.15L799.52 359.31C799.52 359.31 770.05 336.82 774.71 330.62C779.37 324.42 815.81 306.62 815.81 306.62C815.81 306.62 853.02 314.3 842.94 339.15Z" fill="#607D8B"/>
        <path opacity="0.1" d="M810.96 250.94C807.17 250.56 803.25 250.14 799.96 248.23C798.05 247.13 796.3 245.31 796.24 243.1C796.17 240.5 798.36 238.47 800.37 236.82C801.674 235.615 803.18 234.651 804.82 233.97C806.97 233.22 809.32 233.49 811.59 233.3C818.27 232.74 824.25 228.2 830.96 228.24C835.89 228.24 840.42 230.76 844.71 233.19C848.14 235.13 851.95 237.59 852.52 241.49C852.558 242.748 852.662 244.003 852.83 245.25C853.54 248.03 856.53 249.65 857.6 252.31C858.77 255.22 857.29 258.59 855.13 260.86C852.97 263.13 850.13 264.69 847.86 266.81C845.754 268.763 844.084 271.139 842.96 273.783C841.836 276.427 841.284 279.278 841.34 282.15C841.391 282.529 841.332 282.914 841.17 283.26C840.998 283.467 840.785 283.637 840.544 283.757C840.303 283.878 840.039 283.947 839.77 283.96C837.3 284.42 834.25 284.67 832.77 282.63C831.29 280.59 832.46 277.19 830.77 275.18C828.62 272.59 824.1 274.65 821.19 272.95C820.209 272.314 819.443 271.398 818.99 270.32C816.59 265.15 819.34 261.09 820.34 256.15C821.51 250.38 815.03 251.35 810.96 250.94Z" fill="black"/>
        <path d="M811.74 250.15C807.95 249.77 804.03 249.35 800.74 247.44C798.83 246.34 797.08 244.52 797.02 242.31C796.95 239.71 799.14 237.68 801.15 236.03C802.454 234.825 803.961 233.861 805.6 233.18C807.75 232.43 810.1 232.7 812.37 232.51C819.05 231.95 825.03 227.41 831.74 227.45C836.67 227.45 841.2 229.97 845.49 232.4C848.92 234.34 852.73 236.8 853.3 240.7C853.338 241.958 853.442 243.213 853.61 244.46C854.32 247.24 857.31 248.86 858.38 251.52C859.55 254.43 858.07 257.8 855.91 260.07C853.75 262.34 850.91 263.9 848.64 266.02C846.527 267.977 844.852 270.359 843.726 273.01C842.601 275.661 842.05 278.521 842.11 281.4C842.161 281.779 842.101 282.164 841.94 282.51C841.768 282.717 841.555 282.887 841.314 283.007C841.073 283.128 840.809 283.197 840.54 283.21C838.07 283.67 835.02 283.92 833.54 281.88C832.06 279.84 833.23 276.44 831.54 274.43C829.39 271.84 824.87 273.9 821.96 272.2C820.979 271.564 820.213 270.648 819.76 269.57C817.34 264.39 820.1 260.3 821.1 255.31C822.28 249.6 815.8 250.58 811.74 250.15Z" fill="#603456"/>
    </g>
    <defs>
        <linearGradient id="paint0_linear" x1="804.12" y1="677.05" x2="804.12" y2="222.41" gradientUnits="userSpaceOnUse">
            <stop stop-color="#808080" stop-opacity="0.25"/>
            <stop offset="0.54" stop-color="#808080" stop-opacity="0.12"/>
            <stop offset="1" stop-color="#808080" stop-opacity="0.1"/>
        </linearGradient>
        <linearGradient id="paint1_linear" x1="431938" y1="343335" x2="431938" y2="107584" gradientUnits="userSpaceOnUse">
            <stop stop-color="#808080" stop-opacity="0.25"/>
            <stop offset="0.54" stop-color="#808080" stop-opacity="0.12"/>
            <stop offset="1" stop-color="#808080" stop-opacity="0.1"/>
        </linearGradient>
        <clipPath id="clip0">
            <rect width="976.68" height="840.3" fill="white"/>
        </clipPath>
    </defs>
</svg>
