<?xml version="1.0" encoding="iso-8859-1"?>
<!-- Generator: Adobe Illustrator 16.0.0, SVG Export Plug-In . SVG Version: 6.00 Build 0)  -->
<!DOCTYPE svg PUBLIC "-//W3C//DTD SVG 1.1//EN" "http://www.w3.org/Graphics/SVG/1.1/DTD/svg11.dtd">
<svg version="1.1" id="Capa_1" xmlns="http://www.w3.org/2000/svg" xmlns:xlink="http://www.w3.org/1999/xlink" x="0px" y="0px"
	 width="131.549px" height="131.549px" viewBox="0 0 131.549 131.549" style="enable-background:new 0 0 131.549 131.549;"
	 xml:space="preserve">
<g>
	<g>
		<path d="M7.308,89.374h3.713l23.387,30.344c1.391,1.81,3.534,2.849,5.788,2.849c0.263,0,0.533-0.015,0.799-0.043
			c2.533-0.277,4.741-1.858,5.822-4.168L91.131,23.6h33.109c4.037,0,7.309-3.272,7.309-7.308c0-4.037-3.271-7.309-7.309-7.309H86.48
			c-2.838,0-5.418,1.642-6.621,4.212l-41.201,88.097L20.405,77.604c-1.381-1.795-3.521-2.848-5.788-2.848H7.308
			C3.272,74.756,0,78.027,0,82.065S3.272,89.374,7.308,89.374z"/>
	</g>
</g>
<g>
</g>
<g>
</g>
<g>
</g>
<g>
</g>
<g>
</g>
<g>
</g>
<g>
</g>
<g>
</g>
<g>
</g>
<g>
</g>
<g>
</g>
<g>
</g>
<g>
</g>
<g>
</g>
<g>
</g>
</svg>
