<svg width="1144" height="653" viewBox="0 0 1144 653" fill="none" xmlns="http://www.w3.org/2000/svg">
    <g clip-path="url(#clip0)">
        <path opacity="0.1" d="M687.72 470.31C709.82 469.05 737.24 454.06 758.56 447.43C783.793 439.603 809.127 432.073 834.56 424.84C923.1 399.647 1012.59 378.18 1103.03 360.44C1111.47 358.78 1119.92 357.16 1128.39 355.58C1115.2 327.082 1094.77 302.542 1069.13 284.41C1069.79 278.171 1070.12 271.903 1070.13 265.63C1070.13 166.49 990.9 86.12 893.13 86.12C863.029 86.088 833.434 93.8572 807.23 108.67C738.03 63.15 647.71 35.6 548.89 35.6C408.47 35.6 285.2 91.23 215.35 175L543.63 230.46L744.97 264.46C515.44 271.31 285.2 278.12 56.33 262.04C26.118 291.273 6.99592 330.09 2.23174 371.859C-2.53244 413.628 7.35701 455.755 30.21 491.04V491.04C30.21 494.63 30.36 498.19 30.63 501.72C36.46 503.39 42.09 505.01 47.14 506.07C128.213 523.197 209.807 537.53 291.92 549.07C231.41 586.38 157.72 591.66 87.92 607.46C121.72 635.36 167.62 652.46 218.2 652.46H971.32C1052.87 652.46 1118.97 595.69 1118.97 525.65C1131.21 505.47 1139.36 483.083 1142.97 459.76C992.07 474.33 839.29 461.68 687.72 470.31Z" fill="#BDBDBD"/>
        <path d="M934.28 319.95C932.85 318.852 931.176 318.118 929.4 317.81C927.53 317.38 925.62 317.11 923.72 316.81L899.1 313.26C896.615 312.799 894.08 312.664 891.56 312.86C890.296 312.964 889.065 313.318 887.939 313.901C886.812 314.485 885.814 315.287 885 316.26C884.266 317.165 883.864 318.295 883.86 319.46C883.997 320.633 884.379 321.764 884.98 322.78C885.218 323.255 885.422 323.746 885.59 324.25C885.826 325.381 886.119 326.499 886.47 327.6C886.579 327.838 886.72 328.06 886.89 328.26C886.894 328.317 886.894 328.373 886.89 328.43C886.62 329.81 887.49 331.25 887.1 332.58C886.76 333.72 885.65 334.41 884.95 335.36C884.483 336.034 884.225 336.83 884.207 337.65C884.189 338.47 884.413 339.276 884.85 339.97C885.6 341.13 886.96 341.92 887.35 343.25C887.86 345 886.48 346.69 885.25 348.04C882.987 350.525 880.896 353.161 878.99 355.93C878.454 356.611 878.109 357.422 877.99 358.28C877.88 360.02 879.55 361.55 879.26 363.28C879.03 364.64 877.7 365.47 876.55 366.28C872.3 369.08 868.89 373.58 868.55 378.67C867.459 370.572 864.103 362.946 858.87 356.67C857.44 354.95 855.87 353.22 855.28 351.04C855.06 350.17 855.02 349.24 854.72 348.4C853.72 345.75 850.54 344.61 849.15 342.17C848.15 340.45 848.15 338.24 846.91 336.73C845.67 335.22 843.72 334.88 842.65 333.42C842.116 332.431 841.661 331.401 841.29 330.34C840.841 329.475 840.21 328.717 839.44 328.12C839.293 328.002 839.139 327.892 838.98 327.79C839.146 327.641 839.279 327.46 839.37 327.256C839.462 327.053 839.509 326.833 839.51 326.61C839.51 325.44 838.35 324.67 837.34 324.09C836.04 323.35 834.77 322.55 833.53 321.72C834.882 321.09 836.055 320.131 836.94 318.93C838.05 317.139 838.509 315.02 838.24 312.93C838.172 311.243 837.542 309.628 836.45 308.34C835.82 307.67 835.03 307.19 834.37 306.56C832.66 304.89 832.08 302.42 831.37 300.14C830.43 297.14 828.96 293.99 826.22 292.4C824.9 291.63 823.36 291.27 822.07 290.46C820.78 289.65 819.7 288.12 820.15 286.65C820.45 285.65 821.38 284.96 822.01 284.11C822.762 283.011 823.051 281.66 822.813 280.349C822.575 279.039 821.83 277.875 820.74 277.11C820 276.64 819.09 276.23 818.94 275.37C818.361 275.22 817.836 274.909 817.426 274.474C817.016 274.039 816.736 273.497 816.62 272.91C816.395 271.734 816.395 270.526 816.62 269.35C816.88 267.49 817.137 265.637 817.39 263.79C817.831 263.973 818.303 264.068 818.78 264.068C819.257 264.068 819.729 263.973 820.17 263.79C821.035 265.194 822.04 266.508 823.17 267.71C826.215 271.306 828.586 275.422 830.17 279.86C830.74 281.46 831.32 283.25 832.8 284.1C833.31 284.39 833.89 284.54 834.39 284.85C835.007 285.28 835.536 285.823 835.95 286.45C837.15 288.04 838.35 289.62 839.54 291.21L839.6 291.45C839.632 291.591 839.686 291.726 839.76 291.85C839.981 292.099 840.288 292.256 840.62 292.29C844.3 293.14 848.43 293.92 851.62 291.91C854.5 290.11 855.76 286.55 858.2 284.17C859.93 282.48 862.38 281.17 862.87 278.79C862.286 278.61 861.712 278.4 861.15 278.16C861.65 277.66 862.15 277.08 862.83 276.42C863.818 275.453 864.709 274.391 865.49 273.25C866.334 271.842 867.006 270.338 867.49 268.77C869.417 263.277 871.35 257.78 873.29 252.28C874.21 249.68 875.13 247.06 876.29 244.53C877.49 241.79 878.91 239.16 880.22 236.47C883.601 229.474 886.21 222.131 888 214.57C888.317 213.538 888.423 212.453 888.31 211.38C888.03 209.65 886.72 208.29 885.47 207.06C884.213 205.699 882.781 204.512 881.21 203.53C880.421 203.04 879.543 202.711 878.626 202.563C877.71 202.416 876.773 202.452 875.87 202.67C873.31 203.42 871.7 206.04 871.11 208.67C870.52 211.3 870.74 214.01 870.49 216.67C870.13 220.52 868.81 224.24 868.49 228.1C868.32 230.33 868.49 232.59 868.22 234.82C867.728 237.738 866.712 240.544 865.22 243.1C861.977 249.197 857.587 254.609 852.29 259.04C851.68 259.55 851.05 260.04 850.45 260.59C850.45 260.16 850.52 259.72 850.58 259.29C850.145 259.403 849.72 259.554 849.31 259.74C849.36 259.235 849.309 258.725 849.16 258.24C848.36 255.85 844.8 255.24 844.16 252.81C844.053 252.209 843.997 251.6 843.99 250.99C843.78 248.86 842.33 247.06 841.83 244.99C841.37 243.08 841.72 240.99 840.83 239.22C840.072 238.113 839.178 237.105 838.17 236.22C836.968 234.848 836.102 233.215 835.64 231.45C835.51 230.96 835.39 230.45 835.25 229.96C835.402 228.85 835.278 227.72 834.89 226.67C833.98 224.41 831.63 222.96 830.78 220.67C830.12 218.89 830.41 216.67 829.16 215.29C828.496 214.631 827.683 214.14 826.79 213.86C822.213 212.078 817.41 210.943 812.52 210.49C809.78 210.24 806.76 210.1 804.8 208.17C802.51 205.93 802.4 201.9 799.72 200.17C797.36 198.64 794.02 199.77 792.19 201.92C791.915 202.236 791.661 202.57 791.43 202.92C791.096 201.58 791.025 200.187 791.22 198.82C791.22 198.48 791.29 198.13 791.32 197.82C795.835 196.345 799.678 193.31 802.16 189.26C802.16 189.26 802.16 189.26 802.16 189.32L802.28 189.63C802.57 190.36 803.03 191.06 803.71 191.14C804.162 191.135 804.599 190.976 804.95 190.69C805.553 190.271 806.11 189.788 806.61 189.25C806.863 188.97 807.103 188.68 807.33 188.38C807.791 187.756 808.186 187.085 808.51 186.38C809.007 185.319 809.344 184.19 809.51 183.03C809.69 181.87 809.71 180.68 809.91 179.52C810.097 178.622 810.341 177.737 810.64 176.87C810.74 176.58 810.84 176.29 810.93 176C811.02 175.71 811.15 175.32 811.25 175C811.876 172.943 812.212 170.81 812.25 168.66C812.25 168.3 812.25 167.94 812.25 167.58C812.214 166.177 811.898 164.796 811.321 163.516C810.744 162.237 809.917 161.086 808.89 160.13C807.17 158.72 804.89 158.13 803.63 156.22C802.81 154.94 802.63 153.29 802.15 151.79C801.631 149.995 800.62 148.381 799.231 147.131C797.841 145.882 796.13 145.046 794.29 144.72C792.075 144.477 789.85 145.089 788.07 146.43V146.43L787.93 146.54C786.938 147.297 786.097 148.233 785.45 149.3C784.129 148.936 782.919 148.249 781.93 147.3C780.93 146.37 780.16 145.2 779.15 144.3C778.206 143.436 777.048 142.84 775.795 142.577C774.543 142.313 773.242 142.39 772.03 142.8C770.781 143.3 769.669 144.089 768.784 145.103C767.899 146.116 767.267 147.325 766.94 148.63C766.39 150.69 766.49 153.06 765.34 154.78C764.45 156.12 762.99 156.78 761.97 158C761.336 158.773 760.903 159.69 760.71 160.67V160.67C760.589 161.218 760.532 161.779 760.54 162.34V162.34C760.54 162.59 760.54 162.84 760.6 163.08C760.6 163.08 760.6 163.16 760.6 163.2C760.635 163.474 760.692 163.745 760.77 164.01V164.01C761.054 165.024 761.564 165.96 762.26 166.75C762.92 167.506 763.744 168.101 764.67 168.49C765.049 168.637 765.436 168.761 765.83 168.86L767.02 169.13L767.44 169.23C766.004 171.926 765.207 174.917 765.11 177.97C765.012 181.023 765.618 184.058 766.88 186.84C766.88 187.12 766.81 187.4 766.78 187.68C766.617 191.618 766.791 195.562 767.3 199.47C767.44 201.02 767.52 202.73 766.57 203.96C766.137 204.444 765.651 204.877 765.12 205.25C765.66 204.55 766.21 203.86 766.77 203.17C765.36 201.75 763.13 201.57 761.13 201.71C757.259 201.999 753.502 203.147 750.13 205.07C747.89 206.36 745.59 208.07 743.03 207.77C741.52 207.6 740.03 206.77 738.56 207.17C737.734 207.508 736.962 207.966 736.27 208.53C735.723 208.922 735.063 209.126 734.39 209.11C732.82 207.18 730.39 205.87 728.51 204.3C726.37 202.395 724.412 200.296 722.66 198.03C719.42 194.12 716.19 190.2 713.01 186.25C710.33 182.93 707.58 179.34 707.11 175.09C707.062 174.668 707.039 174.244 707.04 173.82C707.105 171.801 707.36 169.792 707.8 167.82C707.919 167.344 707.919 166.846 707.8 166.37C707.5 165.37 706.35 165 705.36 164.78C705.49 164.01 705.58 163.22 705.63 162.47C706.19 153.87 705.58 145.13 707.4 136.71C708.09 133.47 709.22 130.19 711.55 127.84C715.2 124.15 721.31 123.26 724.11 118.89C726.45 115.25 725.52 110.1 722.58 106.89C719.64 103.68 715.11 102.37 710.8 102.53C709.591 102.489 708.396 102.809 707.37 103.45C706.411 104.302 705.693 105.392 705.29 106.61L701 117.04C699.756 119.755 698.707 122.556 697.86 125.42C696.66 129.8 696.39 134.42 695.44 138.84C695.44 142.24 693.25 146.48 692.05 149.61C690.71 153.13 689.26 156.61 688.05 160.2C687.75 161.1 686.7 163.77 686.05 166.2C685.804 166.343 685.576 166.514 685.37 166.71C684.848 167.379 684.373 168.084 683.95 168.82C683.04 170.02 681.56 170.66 680.56 171.82C679.56 172.98 679.35 175.11 680.74 175.69C681.022 175.785 681.314 175.849 681.61 175.88C681.792 175.895 681.973 175.925 682.15 175.97C683.65 176.39 684.24 178.28 684.02 179.84C683.8 181.4 683.02 182.84 682.89 184.4C682.62 187.16 684.24 189.73 685.8 192.05C687.415 194.565 689.199 196.967 691.14 199.24C692.55 200.82 694.14 202.24 695.56 203.76C700.97 209.32 705.27 215.82 710.13 221.86C711.878 224.14 713.866 226.225 716.06 228.08C717.492 229.2 718.992 230.232 720.55 231.17L728.91 236.47C729.858 237.165 730.931 237.671 732.07 237.96C732.442 238.01 732.818 238.01 733.19 237.96C733.24 238.21 733.28 238.45 733.34 238.7C733.99 241.32 735.42 243.7 735.58 246.37C735.74 249.04 735.5 251.77 735.69 254.47C735.87 256.96 736.42 259.47 736.56 261.92C736.84 266.64 735.68 271.3 734.56 275.92C732.87 282.68 731.85 289.58 728.56 295.71C727.64 297.4 726.56 299.12 726.56 301.05C726.56 301.28 726.56 301.52 726.62 301.75L725.12 302.6C724.68 302.85 724.24 303.1 723.84 303.36C721.94 304.6 719.91 305.97 719.13 308.11C718.5 309.84 718.79 311.82 718.03 313.5C717.994 313.575 717.954 313.649 717.91 313.72C717.11 315.28 715.52 316.44 715.16 318.15C714.89 319.46 715.41 320.85 715.16 322.15C715.16 322.15 715.16 322.15 715.16 322.2C714.932 322.853 714.752 323.521 714.62 324.2C714.609 324.422 714.629 324.644 714.68 324.86C714.871 325.618 715.29 326.298 715.88 326.81C716.24 327.156 716.632 327.467 717.05 327.74C717.477 328.02 717.917 328.28 718.37 328.52L718.63 328.66C719.01 328.86 719.39 329.05 719.78 329.23L720.04 329.34C720.49 329.54 720.95 329.72 721.41 329.88L721.73 329.98C722.09 330.1 722.46 330.21 722.83 330.3L723.08 330.38L723.31 330.43L724.31 330.64L724.68 330.71C725.12 330.783 725.57 330.843 726.03 330.89H726.43C726.77 330.89 727.1 330.94 727.43 330.95H727.9C728.25 330.95 728.59 330.95 728.9 330.95H729.26C729.73 330.95 730.2 330.88 730.67 330.82H730.82C731.24 330.76 731.66 330.69 732.08 330.6L732.4 330.53C732.79 330.44 733.18 330.35 733.57 330.23L733.78 330.17C734.25 330.03 734.72 329.88 735.18 329.7C736.772 329.046 738.316 328.281 739.8 327.41C740.8 326.86 741.8 326.3 742.8 325.79C743.542 325.416 744.303 325.082 745.08 324.79C746.971 323.982 749.029 323.639 751.08 323.79C752.092 323.928 753.094 324.132 754.08 324.4C754.08 324.51 754.08 324.62 754.08 324.73C754.893 329.53 755.697 334.33 756.49 339.13C757.799 338.188 759.184 337.355 760.63 336.64C760.36 337.365 760.181 338.121 760.1 338.89C760.04 339.485 760.04 340.085 760.1 340.68C760.19 341.63 760.39 342.68 759.82 343.43C759.47 343.89 758.82 344.15 758.63 344.67C758.491 345.202 758.457 345.755 758.53 346.3C758.489 346.922 758.226 347.508 757.789 347.952C757.353 348.396 756.771 348.669 756.15 348.72C756.436 349.525 756.443 350.403 756.169 351.212C755.895 352.021 755.356 352.715 754.64 353.18C754.222 353.381 753.832 353.637 753.48 353.94C753.138 354.382 752.908 354.9 752.81 355.45C751.488 360.402 748.77 364.87 744.98 368.32C743.558 369.437 742.26 370.705 741.11 372.1C740.399 373.181 739.812 374.338 739.36 375.55C736.693 382.07 733.987 388.593 731.24 395.12C729.72 398.77 728.24 402.48 727.76 406.41C726.56 417.19 716.96 426.33 718.76 437.03C719.124 439.703 720.202 442.228 721.88 444.34C723.88 446.75 726.88 448.13 729.88 449.25C737.59 452.25 745.72 453.89 753.82 455.54L766.54 458.15C769.036 458.724 771.569 459.125 774.12 459.35C777.19 459.56 780.34 459.27 783.33 460.05C785.18 460.53 786.95 461.42 788.86 461.52C790.5 461.61 792.52 461.26 793.49 462.6C794.46 463.94 793.71 465.71 794.63 466.9C796.11 468.79 799.72 466.9 801.33 468.68C801.77 469.364 802.107 470.108 802.33 470.89C802.575 471.373 802.915 471.802 803.33 472.15C803.428 472.714 803.468 473.287 803.45 473.86C803.241 476.182 802.758 478.472 802.01 480.68C800.81 484.74 799.613 488.803 798.42 492.87C797.964 494.306 797.63 495.778 797.42 497.27C797.345 497.995 797.345 498.725 797.42 499.45C797.63 501.66 798.9 503.94 801.01 504.66C802.647 505.093 804.388 504.878 805.87 504.06C807.301 503.313 808.642 502.407 809.87 501.36C812.084 499.685 814.03 497.682 815.64 495.42C820.64 487.94 819.02 477.82 822.53 469.55C824.86 464.03 829.4 459.55 830.91 453.73C831.263 452.623 831.305 451.439 831.03 450.31C830.4 448.31 828.27 447.17 826.28 446.45H826.19C824.555 445.868 822.885 445.39 821.19 445.02C820.77 444.93 820.34 444.86 819.91 444.79C818.958 444.016 818.202 443.03 817.7 441.91C817.622 441.315 817.463 440.733 817.23 440.18C817.071 439.942 816.857 439.745 816.607 439.606C816.356 439.466 816.076 439.389 815.79 439.38C814.79 439.28 813.45 439.64 812.36 439.56C810.13 439.4 808.65 437.21 806.65 436.2C804.65 435.19 802.48 435.44 800.35 435.59C799.588 435.694 798.813 435.647 798.07 435.45C797.182 435.041 796.37 434.483 795.67 433.8C794.439 432.842 793.003 432.184 791.474 431.877C789.945 431.569 788.365 431.622 786.86 432.03C785.903 432.416 784.89 432.646 783.86 432.71C781.91 432.6 780.53 430.86 779.09 429.54C775.15 425.93 769.54 424.98 764.76 422.61C764.028 422.338 763.418 421.813 763.04 421.13C762.49 419.77 763.73 418.41 764.85 417.48L773.07 410.65C782.07 403.17 793.32 397.54 797.5 386.57C797.936 385.099 798.612 383.711 799.5 382.46C799.824 382.078 800.197 381.742 800.61 381.46C802.428 380.282 804.632 379.852 806.76 380.26C809.353 380.84 811.811 381.913 814 383.42C817.58 385.587 821.063 387.92 824.45 390.42C827.805 392.817 830.995 395.437 834 398.26C839.25 403.26 843.62 409.19 848.51 414.58C853.4 419.97 858.99 425 865.78 427.58C872.57 430.16 880.78 430.05 886.61 425.72C893.34 420.72 895.5 411.78 897.2 403.58C900.95 399.96 902.08 394.45 903.91 389.58C905.06 386.49 906.53 383.58 907.77 380.5C909.25 376.88 910.41 373.14 911.57 369.41C912.885 365.664 913.777 361.784 914.23 357.84C914.71 351.61 913.04 344.98 914.79 339.13C917.1 338.62 919.2 337.32 921.47 336.56C924.85 335.45 928.47 335.63 932.05 335.65H932.28C933.514 335.781 934.755 335.489 935.8 334.82C937 333.82 937.19 332.11 937.25 330.56C937.39 326.73 937.15 322.43 934.28 319.95ZM789.39 149.37C788.563 149.575 787.707 149.635 786.86 149.55L789.39 149.37Z" fill="url(#paint0_linear)"/>
        <path d="M793.33 212.63C792.119 213.658 790.7 214.412 789.17 214.84L782.08 217.38C778.23 218.76 774.21 220.15 770.15 219.65C767.88 219.37 758.15 217.94 756.68 216.17C754.44 213.43 762.29 209.4 764.97 207.09C765.577 206.653 766.14 206.158 766.65 205.61C767.65 204.39 767.52 202.68 767.38 201.14C766.871 197.239 766.697 193.301 766.86 189.37C766.938 188.433 767.071 187.501 767.26 186.58C768.26 181.98 772.54 183.66 775.92 184.88C779.989 186.202 783.923 187.906 787.67 189.97C788.811 190.558 789.803 191.4 790.57 192.43C792.05 194.67 791.46 197.61 791.22 200.43C791.01 202.62 791.02 204.72 792.39 206.31C793.079 206.918 793.712 207.587 794.28 208.31C794.6 209.038 794.681 209.848 794.51 210.625C794.339 211.402 793.926 212.104 793.33 212.63Z" fill="#BE6F72"/>
        <path d="M695.39 140.56C696.39 136.13 696.61 131.56 697.81 127.17C698.657 124.316 699.706 121.525 700.95 118.82L705.36 108.53C705.763 107.315 706.481 106.228 707.44 105.38C708.468 104.743 709.661 104.423 710.87 104.46C715.18 104.3 719.71 105.64 722.65 108.81C725.59 111.98 726.52 117.11 724.18 120.74C721.38 125.11 715.27 125.99 711.62 129.67C709.29 132.02 708.16 135.29 707.47 138.52C705.65 146.92 706.26 155.63 705.7 164.21C705.52 166.88 705 169.93 702.7 171.31C701.31 171.991 699.764 172.291 698.22 172.18L691.66 172.29C690.56 172.29 686.57 172.98 685.84 172.15C684.56 170.7 687.48 163.48 688.01 161.87C689.19 158.3 690.64 154.82 692.01 151.31C693.2 148.18 695.39 143.95 695.39 140.56Z" fill="#BE6F72"/>
        <path d="M830.84 454.72C829.33 460.5 824.79 465 822.46 470.51C818.95 478.76 820.53 488.85 815.57 496.31C813.961 498.576 812.015 500.582 809.8 502.26C808.572 503.304 807.23 504.207 805.8 504.95C804.318 505.768 802.577 505.983 800.94 505.55C798.83 504.83 797.56 502.55 797.35 500.35C797.275 499.629 797.275 498.901 797.35 498.18C797.56 496.691 797.894 495.223 798.35 493.79C799.55 489.743 800.747 485.69 801.94 481.63C802.687 479.428 803.17 477.146 803.38 474.83C803.51 472.31 801.91 469.03 802.59 466.68C802.9 465.62 804.06 464.68 804.59 463.79C805.342 462.509 805.921 461.134 806.31 459.7C807.13 456.91 807.69 453.93 809.41 451.58C810.532 450.186 811.845 448.958 813.31 447.93C814.391 446.982 815.658 446.27 817.03 445.84C818.361 445.606 819.727 445.671 821.03 446.03C822.726 446.392 824.397 446.867 826.03 447.45H826.12C828.12 448.17 830.24 449.28 830.87 451.3C831.176 452.421 831.166 453.605 830.84 454.72V454.72Z" fill="#3F3D56"/>
        <path d="M937.24 331.78C937.18 333.33 936.99 335.06 935.79 336.03C934.745 336.699 933.504 336.991 932.27 336.86H932C928.43 336.86 924.8 336.66 921.42 337.77C918.85 338.62 916.49 340.18 913.81 340.49C910.12 340.91 906.65 338.89 903.38 337.13C900.301 335.471 897.14 333.969 893.91 332.63C891.79 331.76 887.46 331.2 886.44 328.88C886.091 327.782 885.797 326.667 885.56 325.54C885.392 325.036 885.188 324.545 884.95 324.07C884.35 323.057 883.969 321.929 883.83 320.76C883.834 319.595 884.236 318.465 884.97 317.56C885.786 316.594 886.784 315.799 887.909 315.221C889.033 314.643 890.26 314.292 891.52 314.19C894.04 313.994 896.575 314.129 899.06 314.59L923.68 318.13C925.58 318.4 927.49 318.67 929.36 319.13C931.136 319.438 932.81 320.172 934.24 321.27C937.15 323.71 937.39 328 937.24 331.78Z" fill="#3F3D56"/>
        <path d="M915.6 338.18C912.6 344.51 914.76 352 914.22 359C913.767 362.934 912.874 366.805 911.56 370.54C910.4 374.26 909.24 377.99 907.76 381.6C906.52 384.6 905.05 387.6 903.9 390.66C902.07 395.54 900.9 401.03 897.19 404.66C895.49 412.84 893.33 421.78 886.6 426.74C880.75 431.06 872.6 431.21 865.77 428.6C858.94 425.99 853.39 420.99 848.5 415.6C843.61 410.21 839.24 404.34 833.99 399.32C830.981 396.496 827.784 393.88 824.42 391.49C821.033 389.03 817.55 386.717 813.97 384.55C811.778 383.05 809.321 381.981 806.73 381.4C804.602 380.992 802.398 381.422 800.58 382.6C800.167 382.882 799.793 383.218 799.47 383.6C798.58 384.846 797.904 386.232 797.47 387.7C793.27 398.64 782 404.26 773 411.72L764.78 418.53C763.66 419.46 762.42 420.82 762.97 422.17C763.348 422.853 763.958 423.378 764.69 423.65C769.47 426.01 775.08 426.96 779.02 430.56C780.46 431.88 781.84 433.62 783.79 433.72C784.819 433.66 785.833 433.433 786.79 433.05C788.295 432.643 789.873 432.59 791.402 432.895C792.93 433.201 794.367 433.856 795.6 434.81C796.3 435.493 797.112 436.051 798 436.46C798.743 436.657 799.518 436.704 800.28 436.6C802.41 436.45 804.67 436.26 806.58 437.21C808.49 438.16 810.06 440.4 812.29 440.56C813.38 440.64 814.68 440.28 815.72 440.38C816.006 440.389 816.286 440.466 816.537 440.606C816.787 440.745 817.001 440.942 817.16 441.18C817.393 441.73 817.551 442.308 817.63 442.9C818.04 444.31 819.42 445.17 820.32 446.33C821.7 448.11 821.9 450.53 821.76 452.78C821.307 459.815 818.172 466.409 813 471.2C811.532 472.701 809.659 473.743 807.61 474.2C806.584 474.415 805.516 474.301 804.558 473.876C803.6 473.451 802.799 472.735 802.27 471.83C802.047 471.051 801.71 470.31 801.27 469.63C799.66 467.86 796.05 469.74 794.57 467.85C793.65 466.67 794.31 464.78 793.43 463.56C792.55 462.34 790.43 462.56 788.8 462.49C786.89 462.39 785.12 461.49 783.27 461.02C780.27 460.24 777.13 460.53 774.06 460.32C771.509 460.095 768.976 459.694 766.48 459.12L753.76 456.52C745.66 454.87 737.53 453.2 729.82 450.25C726.87 449.13 723.9 447.75 721.82 445.35C720.143 443.241 719.065 440.719 718.7 438.05C716.89 427.38 726.49 418.26 727.7 407.51C728.13 403.59 729.7 399.89 731.18 396.25C733.893 389.743 736.6 383.233 739.3 376.72C739.737 375.507 740.307 374.347 741 373.26C742.151 371.868 743.448 370.604 744.87 369.49C748.659 366.051 751.378 361.593 752.7 356.65C752.798 356.1 753.028 355.582 753.37 355.14C753.724 354.843 754.114 354.591 754.53 354.39C755.244 353.925 755.781 353.233 756.055 352.426C756.329 351.619 756.324 350.744 756.04 349.94C756.661 349.889 757.243 349.616 757.679 349.172C758.116 348.728 758.379 348.142 758.42 347.52C758.347 346.979 758.381 346.428 758.52 345.9C758.76 345.38 759.36 345.12 759.71 344.66C760.28 343.91 760.08 342.86 759.99 341.92C759.93 341.325 759.93 340.725 759.99 340.13C760.209 338.013 761.156 336.037 762.67 334.54C765.06 332.19 768.46 332.8 771.76 332.24C775.052 331.53 778.267 330.501 781.36 329.17C790.037 325.751 799.173 323.638 808.47 322.9C817.813 322.165 827.197 323.66 835.85 327.26C837.109 327.77 838.296 328.442 839.38 329.26C840.15 329.854 840.781 330.608 841.23 331.47C841.599 332.529 842.054 333.555 842.59 334.54C843.66 336 845.68 336.47 846.85 337.85C848.02 339.23 848.12 341.56 849.09 343.27C850.48 345.71 853.7 346.84 854.66 349.49C854.96 350.33 855 351.25 855.22 352.12C855.76 354.3 857.38 356.02 858.81 357.74C864.052 364.01 867.409 371.639 868.49 379.74C868.81 374.67 872.22 370.18 876.49 367.38C877.64 366.63 878.97 365.8 879.2 364.44C879.49 362.72 877.82 361.19 877.93 359.44C878.051 358.586 878.396 357.778 878.93 357.1C880.836 354.338 882.927 351.708 885.19 349.23C886.42 347.88 887.8 346.23 887.29 344.45C886.9 343.12 885.54 342.34 884.79 341.18C884.352 340.488 884.128 339.683 884.146 338.865C884.164 338.047 884.423 337.252 884.89 336.58C885.59 335.63 886.7 334.94 887.04 333.81C887.43 332.48 886.56 331.04 886.83 329.67C887.195 328.573 887.922 327.632 888.89 327C890.217 325.792 891.725 324.8 893.36 324.06C896 323.06 898.94 323.43 901.74 323.82C906.42 324.47 911.67 325.47 914.31 329.39C916 331.84 916.86 335.56 915.6 338.18Z" fill="#65617D"/>
        <path opacity="0.1" d="M937.24 331.78C937.18 333.33 936.99 335.06 935.79 336.03C934.745 336.699 933.504 336.991 932.27 336.86H932C932.41 334.78 934.94 333.59 935.38 331.48C935.455 330.832 935.396 330.175 935.207 329.551C935.018 328.926 934.702 328.347 934.28 327.85C932.14 324.96 928.7 323.36 925.28 322.19C915.618 318.877 905.267 318.103 895.22 319.94C892.488 320.385 889.83 321.203 887.32 322.37C886.488 322.89 885.687 323.458 884.92 324.07C884.32 323.057 883.939 321.929 883.8 320.76C883.804 319.595 884.206 318.465 884.94 317.56C885.756 316.594 886.754 315.799 887.879 315.221C889.003 314.643 890.23 314.292 891.49 314.19C894.01 313.994 896.545 314.129 899.03 314.59L923.65 318.13C925.55 318.4 927.46 318.67 929.33 319.13C931.106 319.438 932.78 320.172 934.21 321.27C937.15 323.71 937.39 328 937.24 331.78Z" fill="black"/>
        <path opacity="0.1" d="M830.84 454.72C829.33 460.5 824.79 465 822.46 470.51C818.95 478.76 820.53 488.85 815.57 496.31C813.961 498.576 812.015 500.582 809.8 502.26C808.572 503.304 807.23 504.207 805.8 504.95C804.318 505.768 802.577 505.983 800.94 505.55C798.83 504.83 797.56 502.55 797.35 500.35C797.275 499.629 797.275 498.901 797.35 498.18L797.41 498.34C798.28 500.44 799.7 502.64 801.94 503.01C802.781 503.071 803.625 502.957 804.42 502.677C805.215 502.396 805.943 501.955 806.56 501.38C809.86 498.73 811.78 494.78 813.61 490.97C815.042 488.223 816.175 485.329 816.99 482.34C817.39 480.64 817.58 478.9 817.99 477.2C819.89 468.94 826.36 462.2 827.79 453.83C827.906 453.254 827.933 452.664 827.87 452.08C827.681 451.318 827.392 450.585 827.01 449.9C826.662 449.126 826.407 448.314 826.25 447.48C828.25 448.2 830.37 449.31 831 451.33C831.258 452.453 831.203 453.626 830.84 454.72Z" fill="black"/>
        <path opacity="0.1" d="M815.74 440.38C814.814 442.8 813.257 444.927 811.23 446.54C808.383 448.709 805.05 450.151 801.52 450.74C799.877 451.159 798.153 451.138 796.52 450.68C794.3 449.91 792.7 447.83 790.43 447.23C788.81 446.79 787.07 447.18 785.43 446.94C782.48 446.53 780.19 444.28 777.81 442.48C770.52 437 760.95 435.23 753.66 429.75C753.335 429.551 753.067 429.272 752.88 428.94C752.74 428.581 752.689 428.193 752.73 427.81C752.757 424.486 753.504 421.207 754.92 418.2C756.08 416.102 757.461 414.134 759.04 412.33C765.57 404.33 772.13 396.27 779.95 389.52C783.23 386.69 786.81 384.05 790.95 382.77C793.25 382.06 797.79 381.39 800.59 382.59C800.177 382.872 799.803 383.208 799.48 383.59C798.59 384.836 797.914 386.222 797.48 387.69C793.27 398.64 782 404.26 773 411.72L764.78 418.53C763.66 419.46 762.42 420.82 762.97 422.17C763.348 422.853 763.958 423.378 764.69 423.65C769.47 426.01 775.08 426.96 779.02 430.56C780.46 431.88 781.84 433.62 783.79 433.72C784.82 433.66 785.833 433.433 786.79 433.05C788.295 432.643 789.873 432.59 791.402 432.895C792.93 433.201 794.367 433.856 795.6 434.81C796.3 435.493 797.112 436.051 798 436.46C798.743 436.657 799.518 436.704 800.28 436.6C802.41 436.45 804.67 436.26 806.58 437.21C808.49 438.16 810.06 440.4 812.29 440.56C813.4 440.64 814.7 440.26 815.74 440.38Z" fill="black"/>
        <path d="M723.77 304.66C721.87 305.88 719.85 307.26 719.07 309.38C718.43 311.11 718.73 313.09 717.96 314.77C717.19 316.45 715.46 317.62 715.08 319.42C714.81 320.73 715.34 322.11 715.08 323.42C714.854 324.101 714.67 324.796 714.53 325.5C714.43 326.99 715.71 328.2 716.96 329.03C719.621 330.761 722.651 331.844 725.807 332.191C728.963 332.538 732.156 332.141 735.13 331.03C737.8 330.03 740.21 328.4 742.77 327.12C745.267 325.682 748.122 324.988 751 325.12C752.65 325.3 754.23 325.9 755.88 326.12C756.695 326.281 757.537 326.241 758.333 326.004C759.129 325.768 759.856 325.34 760.45 324.76C760.96 324.057 761.302 323.246 761.45 322.39C762.84 316.9 762.21 311.08 760.89 305.56C759.57 300.04 757.57 294.73 756.16 289.24C755.16 285.17 754.39 281 752.72 277.15C751.05 273.3 748.24 269.72 744.31 268.25C744 268.098 743.649 268.052 743.31 268.12C743.058 268.225 742.835 268.39 742.66 268.6C739.551 271.894 737.209 275.835 735.8 280.14C734.23 284.93 733.8 290.01 732.36 294.82C731.74 296.82 730.94 299.5 729.36 301.03C727.78 302.56 725.56 303.51 723.77 304.66Z" fill="#607D8B"/>
        <path opacity="0.1" d="M761.48 322.36C761.312 323.219 760.953 324.029 760.43 324.73C759.837 325.312 759.11 325.74 758.313 325.975C757.517 326.211 756.674 326.247 755.86 326.08C754.22 325.88 752.64 325.27 750.99 325.08C748.112 324.947 745.256 325.641 742.76 327.08C740.2 328.36 737.76 329.95 735.11 330.98C731.233 332.45 726.998 332.691 722.98 331.67C720.846 331.134 718.817 330.241 716.98 329.03C715.72 328.21 714.45 327.03 714.55 325.5C714.69 324.799 714.874 324.108 715.1 323.43C715.36 322.12 714.84 320.74 715.1 319.43C715.48 317.63 717.22 316.43 717.98 314.77C718.74 313.11 718.45 311.12 719.08 309.39C719.86 307.26 721.89 305.89 723.79 304.66C725.69 303.43 727.95 302.49 729.47 301C729.666 300.768 729.844 300.521 730 300.26C731.096 298.569 731.901 296.707 732.38 294.75C733.85 289.93 734.25 284.86 735.81 280.06C737.225 275.759 739.571 271.822 742.68 268.53C742.846 268.315 743.067 268.15 743.32 268.05C743.658 267.981 744.008 268.023 744.32 268.17C748.24 269.65 751.05 273.23 752.73 277.08C754.41 280.93 755.12 285.08 756.17 289.16C757.57 294.65 759.58 299.98 760.9 305.49C762.22 311 762.87 316.86 761.48 322.36Z" fill="black"/>
        <path opacity="0.1" d="M791.22 200.4C786.518 201.894 781.429 201.597 776.933 199.567C772.436 197.536 768.849 193.915 766.86 189.4C766.938 188.463 767.071 187.531 767.26 186.61C768.26 182.01 772.54 183.69 775.92 184.91C779.989 186.232 783.923 187.936 787.67 190C788.811 190.588 789.803 191.43 790.57 192.46C792.05 194.67 791.46 197.61 791.22 200.4Z" fill="black"/>
        <path d="M785.18 200.34C796.226 200.34 805.18 191.386 805.18 180.34C805.18 169.294 796.226 160.34 785.18 160.34C774.134 160.34 765.18 169.294 765.18 180.34C765.18 191.386 774.134 200.34 785.18 200.34Z" fill="#BE6F72"/>
        <path opacity="0.1" d="M839.45 329.8C839.45 331.46 837.2 331.99 835.53 331.9C829.53 331.55 823.66 329.9 817.72 330.4C810.21 331.08 803.31 335.23 795.78 335.61C792.88 335.76 789.93 335.33 787.07 335.86C783.37 336.55 780.07 338.8 776.3 339.12C773.03 339.4 769.8 338.17 766.53 338.3C764.244 338.436 762.015 339.071 760 340.16C760.219 338.043 761.166 336.067 762.68 334.57C765.07 332.22 768.47 332.83 771.77 332.27C775.062 331.56 778.277 330.531 781.37 329.2C790.047 325.781 799.183 323.668 808.48 322.93C817.817 322.187 827.198 323.671 835.85 327.26C837.109 327.77 838.296 328.442 839.38 329.26C839.435 329.435 839.458 329.617 839.45 329.8V329.8Z" fill="black"/>
        <path d="M775.93 216.86L767.83 213.86L764.41 212.6C763.016 212.016 761.549 211.626 760.05 211.44C756.13 211.14 752.44 213.75 750.35 217.08C748.26 220.41 747.47 224.38 746.8 228.25C745.88 233.543 745.1 238.857 744.46 244.19C743.771 249.006 743.42 253.865 743.41 258.73C743.64 271.11 746.26 283.32 749.14 295.37C750.551 300.713 751.616 306.141 752.33 311.62C752.57 313.88 752.68 316.15 752.92 318.42C753.18 320.97 753.6 323.49 754.02 326.02L756.43 340.39C759.43 338.26 762.84 336.39 766.53 336.28C769.8 336.16 773.04 337.38 776.3 337.1C780.05 336.79 783.37 334.54 787.07 333.85C789.93 333.32 792.88 333.74 795.79 333.6C803.31 333.22 810.22 329.06 817.72 328.39C823.67 327.85 829.58 329.53 835.54 329.88C837.2 329.98 839.45 329.45 839.45 327.78C839.45 326.62 838.29 325.85 837.28 325.27C832.519 322.403 827.989 319.17 823.73 315.6C819.79 312.48 815.79 309.28 813.08 305.06C806.55 294.91 808.79 281.18 803.22 270.47C798.69 261.77 803.22 250.37 803.22 240.56C803.22 235.67 803.22 230.72 802.07 225.97C801.351 223.313 800.456 220.708 799.39 218.17L795.5 208.32C795.419 208.032 795.26 207.772 795.04 207.57C794.779 207.39 794.468 207.295 794.15 207.3C791.814 207.16 789.51 207.898 787.69 209.37C785.86 210.86 784.69 213 782.89 214.55C780.92 216.26 778.38 217.76 775.93 216.86Z" fill="#E3E8F4"/>
        <path d="M789 211.18C789.64 208.44 790.33 205.59 792.16 203.45C793.99 201.31 797.33 200.18 799.69 201.71C802.37 203.45 802.48 207.47 804.77 209.71C806.77 211.63 809.77 211.78 812.49 212.03C817.381 212.475 822.184 213.606 826.76 215.39C827.652 215.667 828.465 216.154 829.13 216.81C830.38 218.23 830.13 220.41 830.75 222.18C831.6 224.46 833.95 225.91 834.86 228.18C835.86 230.7 834.86 233.52 834.02 236.11C832.51 240.76 831.56 245.59 830.09 250.26C828.62 254.93 826.53 259.53 823.09 263.05C821.57 264.61 819.31 266.05 817.31 265.12L816.54 270.67C816.315 271.843 816.315 273.047 816.54 274.22C816.656 274.807 816.936 275.349 817.346 275.784C817.756 276.219 818.281 276.53 818.86 276.68C819.01 277.54 819.92 277.95 820.66 278.42C821.206 278.794 821.673 279.272 822.033 279.827C822.393 280.382 822.639 281.004 822.757 281.655C822.875 282.306 822.863 282.974 822.721 283.62C822.579 284.267 822.31 284.878 821.93 285.42C821.3 286.27 820.37 286.94 820.07 287.95C819.62 289.41 820.69 290.95 821.99 291.75C823.29 292.55 824.82 292.92 826.14 293.69C828.88 295.27 830.35 298.38 831.29 301.4C831.99 303.68 832.57 306.15 834.29 307.81C834.95 308.44 835.74 308.92 836.37 309.58C837.46 310.868 838.09 312.484 838.16 314.17C838.434 316.26 837.974 318.381 836.86 320.17C834.86 323.03 831.13 323.88 827.86 325.17C822.55 327.35 818.18 331.25 813.5 334.57C811.594 336.105 809.348 337.161 806.95 337.65C803.71 338.08 800.52 336.65 797.26 336.52C795.31 336.538 793.369 336.793 791.48 337.28L785.48 338.58C785.8 333.93 783.24 329.27 781.81 324.84C779.11 316.5 778.61 307.58 779.25 298.84C779.89 290.1 781.67 281.48 783.43 272.9C784.66 266.9 784.54 260.63 786.43 254.8C788.2 249.19 790.73 243.8 791.66 237.96C793.18 228.51 786.86 220.5 789 211.18Z" fill="#607D8B"/>
        <path d="M834.49 229.67C835.042 230.686 835.43 231.783 835.64 232.92C836.102 234.682 836.969 236.311 838.17 237.68C839.176 238.567 840.069 239.575 840.83 240.68C841.75 242.42 841.4 244.54 841.83 246.44C842.33 248.51 843.78 250.31 843.99 252.44C843.996 253.05 844.053 253.659 844.16 254.26C844.81 256.68 848.37 257.26 849.16 259.68C849.69 261.25 848.78 262.96 848.95 264.61C849.074 265.12 849.105 265.649 849.04 266.17C848.814 266.759 848.417 267.268 847.9 267.63C844.59 270.792 842.299 274.869 841.32 279.34C840.356 283.787 839.85 288.32 839.81 292.87L835.9 287.7C835.486 287.073 834.957 286.53 834.34 286.1C833.84 285.8 833.26 285.65 832.75 285.35C831.27 284.51 830.69 282.73 830.12 281.13C828.537 276.701 826.165 272.595 823.12 269.01C821.53 267.14 819.68 265.26 819.33 262.83C819.225 261.714 819.286 260.588 819.51 259.49C820.51 252.94 821.58 246.23 824.77 240.42C826.26 237.7 828.19 235.24 829.62 232.48C830.58 230.65 831.93 225.89 834.49 229.67Z" fill="#607D8B"/>
        <path d="M735.84 235.96C735.858 236.802 735.644 237.632 735.22 238.36C734.838 238.803 734.34 239.131 733.782 239.308C733.224 239.484 732.628 239.502 732.06 239.36C730.921 239.074 729.849 238.572 728.9 237.88C726.113 236.12 723.327 234.357 720.54 232.59C718.984 231.652 717.485 230.624 716.05 229.51C713.857 227.658 711.869 225.576 710.12 223.3C705.26 217.3 700.96 210.79 695.55 205.3C694.08 203.8 692.55 202.36 691.13 200.79C689.189 198.521 687.405 196.122 685.79 193.61C684.23 191.3 682.61 188.74 682.88 185.98C683.04 184.42 683.79 182.98 684.01 181.43C684.23 179.88 683.64 177.99 682.14 177.57C681.963 177.525 681.782 177.495 681.6 177.48C681.304 177.449 681.012 177.385 680.73 177.29C679.34 176.71 679.55 174.56 680.55 173.43C681.55 172.3 683.03 171.67 683.94 170.43C684.363 169.694 684.838 168.989 685.36 168.32C686.03 167.746 686.83 167.344 687.69 167.15C693.458 165.45 699.56 165.22 705.44 166.48C706.44 166.7 707.58 167.1 707.88 168.07C708 168.543 708 169.037 707.88 169.51C707.439 171.482 707.185 173.491 707.12 175.51C707.118 175.931 707.142 176.352 707.19 176.77C707.66 181.01 710.41 184.6 713.09 187.91C716.27 191.85 719.5 195.76 722.74 199.66C724.492 201.92 726.451 204.012 728.59 205.91C730.59 207.57 733.18 208.91 734.74 211.04C736.01 212.76 735.6 215.11 735.74 217.18C736.205 223.43 736.239 229.705 735.84 235.96V235.96Z" fill="#607D8B"/>
        <path d="M862.84 277.68C863.828 276.72 864.719 275.665 865.5 274.53C866.341 273.124 867.012 271.624 867.5 270.06L873.3 253.61C874.22 251.01 875.14 248.4 876.3 245.87C877.5 243.14 878.92 240.51 880.23 237.87C883.599 230.922 886.205 223.63 888 216.12C888.316 215.088 888.421 214.003 888.31 212.93C888.03 211.2 886.72 209.85 885.47 208.62C884.213 207.262 882.78 206.079 881.21 205.1C880.421 204.61 879.543 204.281 878.626 204.133C877.71 203.986 876.773 204.022 875.87 204.24C873.31 204.99 871.7 207.61 871.11 210.24C870.52 212.87 870.74 215.56 870.49 218.24C870.13 222.08 868.81 225.79 868.49 229.64C868.32 231.87 868.49 234.12 868.22 236.34C867.728 239.255 866.711 242.057 865.22 244.61C861.971 250.691 857.581 256.089 852.29 260.51C850.841 261.58 849.536 262.834 848.41 264.24C847.47 265.646 846.833 267.234 846.54 268.9C845.876 271.438 846.164 274.13 847.35 276.47C848.98 279.25 852.11 280.47 855.1 281.09C859.14 281.93 860.07 280.55 862.84 277.68Z" fill="#BE6F72"/>
        <path d="M785.3 151.36C786.161 149.742 787.479 148.414 789.091 147.541C790.702 146.667 792.535 146.288 794.36 146.45C796.199 146.776 797.909 147.61 799.298 148.857C800.688 150.105 801.7 151.717 802.22 153.51C802.69 155 802.88 156.65 803.7 157.93C804.94 159.86 807.24 160.42 808.96 161.82C809.987 162.774 810.813 163.924 811.39 165.201C811.967 166.479 812.283 167.859 812.32 169.26C812.416 172.122 811.964 174.977 810.99 177.67C810.577 178.819 810.243 179.995 809.99 181.19C809.79 182.35 809.77 183.53 809.59 184.69C809.368 186.194 808.848 187.639 808.06 188.939C807.272 190.239 806.231 191.368 805 192.26C804.649 192.546 804.212 192.705 803.76 192.71C802.98 192.62 802.5 191.71 802.21 190.89C800.62 186.3 801 180.69 798.07 177.03C796.737 175.554 795.126 174.354 793.33 173.5C792.597 173.027 791.772 172.717 790.91 172.59C789.642 172.658 788.423 173.104 787.41 173.87C785.299 175.286 782.957 176.321 780.49 176.93C779.259 177.222 777.978 177.235 776.741 176.968C775.504 176.702 774.342 176.163 773.34 175.39C771.96 174.25 770.95 172.54 769.42 171.65C767.89 170.76 766.29 170.81 764.78 170.2C763.818 169.791 762.962 169.167 762.277 168.377C761.592 167.586 761.097 166.65 760.828 165.639C760.56 164.629 760.526 163.57 760.729 162.544C760.933 161.518 761.367 160.552 762 159.72C763 158.52 764.48 157.84 765.37 156.51C766.52 154.79 766.42 152.43 766.97 150.37C767.295 149.067 767.927 147.86 768.812 146.849C769.697 145.839 770.811 145.054 772.06 144.56C773.272 144.149 774.571 144.07 775.824 144.332C777.076 144.594 778.235 145.187 779.18 146.05C780.18 146.95 780.98 148.11 781.96 149.05C782.927 149.976 784.112 150.645 785.405 150.994C786.698 151.343 788.058 151.363 789.36 151.05" fill="#3F3D56"/>
        <path opacity="0.1" d="M801.74 298.55C801.158 299.068 800.745 299.75 800.556 300.507C800.367 301.263 800.41 302.059 800.68 302.79C800.9 303.26 811.22 301.27 812.31 301.12C815.03 300.73 819.8 300.92 821.63 298.43C824.89 294.02 814.79 295 812.94 295.16C809.42 295.46 804.42 295.94 801.74 298.55Z" fill="black"/>
        <path d="M707.86 169.55C707.419 171.522 707.165 173.531 707.1 175.55C704.1 176.16 700.98 175.16 698.1 174.16L689.83 171.34C689.327 171.018 688.72 170.901 688.133 171.01C687.546 171.12 687.023 171.449 686.67 171.93C685.34 173.31 683.51 175.93 681.67 177.48C681.374 177.449 681.082 177.385 680.8 177.29C679.41 176.71 679.62 174.56 680.62 173.43C681.62 172.3 683.1 171.67 684.01 170.43C684.433 169.694 684.908 168.989 685.43 168.32C686.1 167.746 686.9 167.344 687.76 167.15C693.528 165.45 699.63 165.22 705.51 166.48C706.51 166.7 707.65 167.1 707.95 168.07C708.047 168.563 708.016 169.073 707.86 169.55Z" fill="#607D8B"/>
        <path opacity="0.1" d="M707.86 169.55C707.419 171.522 707.165 173.531 707.1 175.55C704.1 176.16 700.98 175.16 698.1 174.16L689.83 171.34C689.327 171.018 688.72 170.901 688.133 171.01C687.546 171.12 687.023 171.449 686.67 171.93C685.34 173.31 683.51 175.93 681.67 177.48C681.374 177.449 681.082 177.385 680.8 177.29C679.41 176.71 679.62 174.56 680.62 173.43C681.62 172.3 683.1 171.67 684.01 170.43C684.433 169.694 684.908 168.989 685.43 168.32C686.1 167.746 686.9 167.344 687.76 167.15C693.528 165.45 699.63 165.22 705.51 166.48C706.51 166.7 707.65 167.1 707.95 168.07C708.047 168.563 708.016 169.073 707.86 169.55Z" fill="black"/>
        <path opacity="0.1" d="M783.51 359.4C784.95 359.88 786.51 360.58 787 362.02L775.42 359.08L769.42 357.55C768.36 357.28 764.56 356.97 763.86 356.14C762.86 354.92 766.41 355.76 767.05 355.85C768.99 356.14 770.93 356.44 772.86 356.79C776.5 357.44 780 358.51 783.51 359.4Z" fill="black"/>
        <path opacity="0.1" d="M788 369.65C787 368.98 784.13 369.06 782.9 368.77C781.1 368.34 779.33 367.77 777.56 367.22C773.97 366.05 770.41 364.72 766.72 363.86C766.04 363.71 763.72 363.67 763.83 362.81C763.94 361.95 766.15 361.65 766.7 361.61C769.97 361.37 774.05 362.9 777.09 363.99C780.965 365.378 784.634 367.282 788 369.65V369.65Z" fill="black"/>
        <path opacity="0.1" d="M780.66 350.26C776.99 349.26 773.66 346.98 769.88 346.54C768.895 346.577 767.926 346.281 767.13 345.7C766.686 345.263 766.377 344.708 766.24 344.1C768.77 343.97 771.71 345.04 774.01 346.05C775.276 346.593 776.494 347.242 777.65 347.99C778.49 348.5 779.75 349.97 780.66 350.26Z" fill="black"/>
        <path d="M850.62 260.72C850 264.877 850.897 269.119 853.149 272.669C855.4 276.219 858.855 278.839 862.88 280.05C862.39 282.42 859.94 283.73 858.21 285.42C855.77 287.79 854.51 291.34 851.63 293.14C848.42 295.14 844.29 294.36 840.63 293.52C840.297 293.483 839.99 293.322 839.77 293.07C839.695 292.95 839.64 292.818 839.61 292.68C838.4 288.25 837.61 283.52 838.85 279.08C839.85 275.3 842.25 272.08 844.17 268.74C846.09 265.4 846.27 261.82 850.62 260.72Z" fill="#607D8B"/>
        <path d="M761.21 203.38C757.339 203.662 753.581 204.806 750.21 206.73C747.97 208.01 745.67 209.73 743.11 209.42C741.6 209.25 740.11 208.42 738.64 208.82C737.812 209.154 737.04 209.613 736.35 210.18C736 210.459 735.584 210.642 735.143 210.712C734.701 210.782 734.249 210.737 733.83 210.58L732.83 224.42C732.45 229.68 732.08 235.05 733.34 240.18C733.99 242.8 735.42 245.18 735.58 247.84C735.74 250.5 735.5 253.23 735.69 255.92C735.87 258.41 736.42 260.86 736.56 263.35C736.84 268.05 735.68 272.71 734.56 277.28C732.87 284.02 731.85 290.91 728.56 297.01C727.64 298.7 726.56 300.42 726.56 302.34C726.56 302.58 726.56 302.81 726.62 303.04C725.62 303.59 724.69 304.11 723.84 304.65C721.94 305.88 719.91 307.25 719.13 309.38C718.5 311.11 718.79 313.09 718.03 314.76C717.27 316.43 715.53 317.62 715.15 319.42C714.88 320.73 715.4 322.11 715.15 323.42C714.924 324.098 714.74 324.789 714.6 325.49C714.5 326.99 715.77 328.2 717.03 329.02C718.867 330.231 720.896 331.124 723.03 331.66L729 307.96C734.443 297.896 738.971 287.364 742.53 276.49C743.548 272.936 744.856 269.471 746.44 266.13C747.572 264.24 748.574 262.276 749.44 260.25C750.35 257.73 750.44 255 750.88 252.34C751.402 249.235 752.189 246.181 753.23 243.21C754.31 240 755.56 236.8 755.78 233.43C756.11 228.61 754.36 223.52 756.22 219.06C757.01 217.391 758.037 215.845 759.27 214.47C761.85 211.31 764.2 208 766.78 204.84C765.44 203.41 763.21 203.26 761.21 203.38Z" fill="#607D8B"/>
        <g opacity="0.1">
            <path opacity="0.1" d="M789.39 148.07L788.14 148.16L788 148.26C788.468 148.241 788.934 148.177 789.39 148.07V148.07Z" fill="black"/>
            <path opacity="0.1" d="M812.27 168.83C812.061 170.818 811.632 172.777 810.99 174.67C810.577 175.819 810.243 176.995 809.99 178.19C809.79 179.35 809.77 180.53 809.59 181.69C809.368 183.194 808.848 184.639 808.06 185.939C807.272 187.239 806.231 188.368 805 189.26C804.649 189.546 804.212 189.705 803.76 189.71C802.98 189.62 802.5 188.71 802.21 187.89C800.62 183.3 801 177.69 798.07 174.03C796.737 172.554 795.126 171.354 793.33 170.5C792.598 170.028 791.772 169.717 790.91 169.59C789.642 169.658 788.423 170.104 787.41 170.87C785.299 172.286 782.957 173.321 780.49 173.93C779.259 174.222 777.978 174.235 776.741 173.968C775.504 173.702 774.342 173.163 773.34 172.39C771.96 171.25 770.95 169.54 769.42 168.65C767.89 167.76 766.29 167.81 764.78 167.2C763.837 166.797 762.996 166.187 762.321 165.415C761.646 164.643 761.153 163.729 760.88 162.74C760.845 162.615 760.818 162.488 760.8 162.36C760.55 163.476 760.578 164.637 760.88 165.74C761.153 166.729 761.646 167.643 762.321 168.415C762.996 169.187 763.837 169.797 764.78 170.2C766.29 170.81 767.99 170.82 769.42 171.65C770.85 172.48 771.96 174.25 773.34 175.39C774.342 176.163 775.504 176.702 776.741 176.968C777.978 177.235 779.259 177.222 780.49 176.93C782.957 176.321 785.299 175.286 787.41 173.87C788.423 173.104 789.642 172.658 790.91 172.59C791.772 172.717 792.598 173.028 793.33 173.5C795.104 174.371 796.69 175.58 798 177.06C800.93 180.72 800.55 186.33 802.14 190.92C802.43 191.75 802.91 192.65 803.69 192.74C804.17 192.742 804.635 192.572 805 192.26C806.236 191.366 807.281 190.232 808.071 188.926C808.861 187.621 809.381 186.17 809.6 184.66C809.78 183.5 809.8 182.32 810 181.16C810.253 179.965 810.587 178.789 811 177.64C811.974 174.947 812.426 172.092 812.33 169.23C812.31 169.11 812.29 168.97 812.27 168.83Z" fill="black"/>
        </g>
        <path d="M749 249.07L748.32 258.2C748.22 259.44 745.85 288.96 728.37 323.46C713.37 353.05 684.18 391.59 629.07 413.25C624.77 414.95 620.307 416.537 615.68 418.01L610.52 401.81C623.474 397.733 635.953 392.275 647.74 385.53C675.83 369.31 697.67 346.16 712.9 316.37C720.98 300.509 726.739 283.569 730 266.07H667.3V249.07H749Z" fill="#FFD700"/>
        <path opacity="0.1" d="M622.32 413.26C677.42 391.6 706.62 353.07 721.61 323.48C739.09 288.98 741.47 259.48 741.56 258.22L742.24 249.09H749.24L748.56 258.22C748.47 259.46 746.09 288.98 728.61 323.48C713.61 353.07 684.42 391.6 629.32 413.26C625.02 414.96 620.553 416.55 615.92 418.03L615.24 415.9C617.653 415.04 620.013 414.16 622.32 413.26Z" fill="white"/>
        <path d="M512 401.81L506.84 418.01C502.207 416.53 497.74 414.94 493.44 413.24C438.34 391.58 409.14 353.05 394.15 323.46C376.67 288.96 374.29 259.46 374.2 258.2L373.52 249.07H455.18V266.07H392.47C395.748 283.572 401.524 300.511 409.62 316.37C424.85 346.16 446.68 369.31 474.77 385.52C486.558 392.272 499.041 397.734 512 401.81V401.81Z" fill="#FFD700"/>
        <path opacity="0.1" d="M500.18 413.26C445.08 391.6 415.88 353.07 400.89 323.48C383.41 288.98 381.03 259.48 380.94 258.22L380.26 249.09H373.26L373.94 258.22C374.03 259.46 376.41 288.98 393.89 323.48C408.89 353.07 438.08 391.6 493.18 413.26C497.48 414.96 501.947 416.55 506.58 418.03L507.26 415.9C504.853 415.04 502.493 414.16 500.18 413.26Z" fill="white"/>
        <path d="M655.59 558.41V650.08H466.92V558.41L472.92 550.41C534.06 528.71 546.45 472.12 548.92 449.73C549.288 446.636 549.498 443.525 549.55 440.41H572.88C572.932 443.525 573.142 446.636 573.51 449.73C576.02 472.12 588.41 528.73 649.51 550.41L655.59 558.41Z" fill="#FFD700"/>
        <path opacity="0.1" d="M655.59 558.41H466.92V569.91H655.59V558.41Z" fill="black"/>
        <path opacity="0.1" d="M482.92 550.41C544.06 528.71 556.45 472.12 558.92 449.73C559.288 446.636 559.498 443.525 559.55 440.41H549.55C549.498 443.525 549.288 446.636 548.92 449.73C546.41 472.12 534.02 528.73 472.92 550.41L466.92 558.41V650.08H476.92V558.41L482.92 550.41Z" fill="white"/>
        <path opacity="0.1" d="M438.26 249.07H455.18V266.07H439.76C439.153 260.47 438.653 254.803 438.26 249.07Z" fill="black"/>
        <path opacity="0.1" d="M512 401.81L506.84 418.01C502.207 416.53 497.74 414.94 493.44 413.24C486.367 404.602 480.116 395.322 474.77 385.52C486.558 392.272 499.041 397.734 512 401.81Z" fill="black"/>
        <path opacity="0.1" d="M610.51 401.81C623.464 397.733 635.943 392.275 647.73 385.53C642.381 395.333 636.131 404.616 629.06 413.26C624.76 414.96 620.297 416.547 615.67 418.02L610.51 401.81Z" fill="black"/>
        <path opacity="0.1" d="M684.24 249.07C683.847 254.803 683.347 260.47 682.74 266.07H667.33V249.07H684.24Z" fill="black"/>
        <path opacity="0.1" d="M573.55 449.73C565.429 451.303 557.081 451.303 548.96 449.73C549.328 446.636 549.538 443.525 549.59 440.41H572.92C572.972 443.525 573.182 446.636 573.55 449.73V449.73Z" fill="black"/>
        <path d="M440.26 220.91C440.69 346.97 494.69 448.91 561.26 448.91C627.83 448.91 681.82 346.97 682.26 220.91H440.26Z" fill="#FFD700"/>
        <path opacity="0.1" d="M461.76 220.91H440.26C440.69 346.97 494.69 448.91 561.26 448.91C564.862 448.903 568.458 448.599 572.01 448C510.47 437.72 462.17 340.11 461.76 220.91Z" fill="white"/>
        <path opacity="0.1" d="M503.09 598H625.42V593.5H497.09V626.5H503.09V598Z" fill="white"/>
        <path d="M371.82 342.62C369.51 341.85 355.91 331.09 354.88 326.22C353.85 321.35 362.07 275.98 362.07 275.98C362.07 275.98 361.31 275.98 360.07 275.83V275.1L361.76 215.5C361.76 215.5 368.69 175.5 355.6 177.83C342.51 180.16 350.72 215.5 350.72 215.5C350.72 215.5 349.23 233.44 348.18 238.82C347.18 244.01 342.6 265.15 345.72 271.72C345.834 271.953 345.961 272.18 346.1 272.4V272.4C346.1 272.4 346.62 294.95 340.97 298.03C335.58 300.96 333.34 315.71 333.15 317.03L332.86 316.91C331.251 315.903 329.838 314.612 328.69 313.1C328.57 312.95 328.48 312.79 328.37 312.63C332.049 308.491 334.032 303.116 333.923 297.579C333.813 292.043 331.62 286.751 327.78 282.76C325.995 280.906 323.9 279.376 321.59 278.24C321.523 276.329 321.07 274.452 320.26 272.72C317.66 267.16 303.26 259.89 293.03 259.72C288.31 259.58 284.44 260.92 283.03 264.61C282.31 266.48 282.53 268.61 282.23 270.55C281.63 274.55 279.06 277.68 275.76 280.17C274.427 278.682 272.987 277.295 271.45 276.02C268.11 273.46 261.45 265.02 261.45 265.02C261.45 265.02 240.66 243.49 239.12 237.59C237.58 231.69 216.81 196.26 212.19 202.43C207.57 208.6 228.1 235.49 228.1 235.49C228.1 235.49 232 245.26 235 248.56C238 251.86 261 285.26 261 285.26L262.1 287.54C257.24 290.1 252.8 293.36 251.23 298.44C248.93 305.92 253.96 313.44 257.44 320.44C264.22 334.1 265.19 351.52 256.44 364C248.6 375.02 235 380.26 222.27 384.84C228.418 389.668 236.056 392.203 243.87 392.01C240.93 400.53 230.51 403.35 221.63 404.93C226.29 409.41 232.96 411.04 239.36 412.03C242.494 412.564 245.671 412.815 248.85 412.78H249.63L250.41 412.72C251.494 412.648 252.573 412.511 253.64 412.31C258.26 411.37 262.75 408.85 265.11 404.77C267.11 401.28 267.81 396.52 271.44 394.77C272.385 394.343 273.404 394.102 274.44 394.06H274.33C275.01 394.06 275.71 394.06 276.39 394.06L291.52 394.21C292.15 394.21 292.8 394.21 293.45 394.21C297.72 394.11 302.28 393.37 304.45 389.84C305.343 388.126 305.812 386.223 305.82 384.29C306.14 379.5 305.82 374.57 305.95 369.74C307.24 378.53 308.59 392.23 305.38 397.29C302.772 401.124 299.611 404.551 296 407.46C295.092 408.223 294.261 409.074 293.52 410C293.03 410.35 292.74 410.54 292.74 410.54L292.43 411.47C291.29 413.199 290.464 415.115 289.99 417.13C289.815 417.648 289.751 418.196 289.8 418.74C290.15 419.45 287.3 422.38 288.13 423.61C281.01 431.96 279.66 444.61 279.66 444.61L266.66 464.35C259.98 481.9 249.98 483.7 249.98 483.7C249.98 483.7 226.49 467.94 225.85 467.17C225.21 466.4 216.23 462.55 216.23 462.55C215.171 460.693 213.555 459.217 211.61 458.33C208.53 457.05 208.27 452.33 208.27 452.33C207.89 441.18 201.34 440.33 201.34 440.33C196.06 439.88 192.03 440.82 188.93 442.54L187.99 442.61C183.45 442.98 177.99 443.39 171.99 443.79C155.3 444.89 151.33 455.7 151.33 455.7C151.33 455.7 149.28 458.01 151.97 460.51C154.66 463.01 171.88 460.51 172.61 460.45C171.298 460.592 169.97 460.501 168.69 460.18C171.4 460.08 175.13 459.98 178.31 459.98H179.08C178.88 461.666 178.783 463.362 178.79 465.06C178.79 468.26 187.64 470.31 187.64 470.31L214.59 494.31C214.59 494.31 231.53 501.88 242.31 512.77C253.09 523.66 262.62 514.26 262.62 514.26C274.03 511.44 306.86 471.75 306.89 471.71C306.89 472.87 307.58 511.47 308.89 519.22C308.942 519.613 309.039 519.999 309.18 520.37C310.72 523.7 308.66 532.8 307.77 536.64C307.202 539.854 306.984 543.119 307.12 546.38C307.12 546.38 294.81 593.38 295.83 597.51C296.85 601.64 289.16 620.83 289.16 620.83V636.83L290.5 636.76C290.326 637.018 290.165 637.285 290.02 637.56L289.93 637.73C289.93 637.73 298.14 639.52 303.66 639.01C309.18 638.5 318.66 643.26 318.66 643.26C318.66 643.26 321.87 644.78 331.75 645.42C341.63 646.06 341.63 641.06 341.63 641.06C340.5 634.25 324.89 631.97 324.41 631.9C323.15 631.11 321.97 630.25 321 629.51L320.8 629.35C320.865 629.2 320.922 629.046 320.97 628.89C322.64 622.09 313.4 619.14 313.4 619.14V617.48C319.4 614.4 320.59 593.26 320.59 593.26C320.59 593.26 329.59 567.12 330.85 562.76C332.11 558.4 330.85 551.87 330.85 551.87L331.75 546.23C331.75 546.23 333.68 542.39 333.68 541.62C333.93 539.668 334.681 537.815 335.86 536.24C337.27 534.57 334.32 530.6 334.32 530.6L336.89 523.94V516.63L342.89 490.11C342.89 490.11 349.18 459.22 347 449.11C344.82 439 349.57 433.86 349.57 433.86C349.142 434.085 348.701 434.285 348.25 434.46C348.851 433.072 349.368 431.649 349.8 430.2L363.3 431.87V432.07H368.17C368.17 432.07 366.63 413.07 366.63 405.41C366.63 397.75 371.82 370.26 371.82 370.26C371.82 370.26 374.13 343.39 371.82 342.62ZM311.89 320.44C311.89 321.19 311.82 321.97 311.77 322.77L311.5 323.18L311 322.76L310.39 323.71L310.21 323.8C308.89 323.12 308.21 319.23 307.26 320.07L307.13 320.18C306.92 319.94 306.71 319.87 306.49 320.07L306.29 320.24C306.29 319.95 306.29 319.65 306.29 319.35C308.119 319.821 310.001 320.059 311.89 320.06C311.9 320.19 311.89 320.32 311.89 320.44ZM356.79 408.92H357.08L356.6 410.18C356.66 409.76 356.72 409.35 356.79 408.92V408.92ZM307.5 635.69L305.66 635.23L306.66 635.06L307.59 635.67L307.7 635.75L307.5 635.69ZM326.3 633C325.69 632.68 325.07 632.31 324.47 631.93C324.67 632.04 325.46 632.45 326.3 633V633Z" fill="url(#paint1_linear)"/>
        <path d="M363.43 390.03L351.32 421.59H354.26L342.87 430.67L363.43 433.23V390.03Z" fill="#607D8B"/>
        <path opacity="0.1" d="M363.43 390.03L351.32 421.59L348.27 420.77L342.87 430.67L363.43 433.23V390.03Z" fill="black"/>
        <path d="M344.44 410.22H363.43L370.4 352.87H344.44V410.22Z" fill="#607D8B"/>
        <path opacity="0.1" d="M344.44 410.22H363.43L370.4 352.87H344.44V410.22Z" fill="black"/>
        <path d="M307.35 366.45L311.45 365.76L320.87 364.16C320.87 364.16 349.16 357.78 355 357.26C358.538 356.793 361.988 355.809 365.24 354.34C366.77 353.68 367.74 353.18 367.74 353.18L357.55 334.57L341.74 322.85C341.74 322.85 331.74 320.72 327.51 314.9C326.566 313.648 325.951 312.179 325.722 310.627C325.494 309.076 325.658 307.492 326.2 306.02C328.78 298.02 310.79 313.67 310.79 313.67C310.79 313.67 310.96 317.42 310.79 322.2C310.79 323.14 310.7 324.12 310.63 325.12C310.63 325.78 310.54 326.44 310.47 327.12C310.03 331.87 309.13 336.76 307.35 339.68C303 346.82 307.35 366.45 307.35 366.45Z" fill="#FBBEBE"/>
        <path opacity="0.1" d="M310.79 322.6H311.19C311.91 322.6 312.49 321.07 313.19 321C318.82 320.46 323.96 319.28 327.53 315.29C326.588 314.038 325.975 312.571 325.747 311.022C325.518 309.472 325.68 307.89 326.22 306.42C328.8 298.42 310.81 314.06 310.81 314.06C310.81 314.06 311 317.82 310.79 322.6Z" fill="black"/>
        <path d="M288.89 299.92C288.889 302.799 289.455 305.65 290.556 308.31C291.657 310.97 293.272 313.387 295.307 315.423C297.343 317.458 299.76 319.073 302.42 320.174C305.08 321.275 307.931 321.841 310.81 321.84C311.53 321.84 312.24 321.84 312.95 321.74C317.174 321.326 321.186 319.694 324.501 317.044C327.815 314.393 330.289 310.837 331.621 306.808C332.954 302.779 333.088 298.449 332.008 294.345C330.928 290.241 328.679 286.539 325.535 283.688C322.392 280.837 318.488 278.959 314.298 278.284C310.108 277.609 305.813 278.164 301.932 279.883C298.052 281.602 294.754 284.41 292.439 287.967C290.124 291.524 288.891 295.676 288.89 299.92Z" fill="#FBBEBE"/>
        <path d="M282.16 266.65C281.44 268.51 281.66 270.59 281.37 272.56C280.3 279.67 273.07 283.93 266.53 286.91C259.99 289.89 252.61 293.42 250.53 300.29C248.25 307.72 253.23 315.17 256.69 322.14C263.43 335.72 264.39 353.04 255.69 365.46C247.96 376.46 234.49 381.68 221.81 386.26C227.913 391.061 235.497 393.586 243.26 393.4C240.35 401.87 230 404.68 221.18 406.24C225.81 410.7 232.44 412.32 238.79 413.3C243.42 414.02 248.17 414.49 252.79 413.56C257.41 412.63 261.79 410.12 264.17 406.06C266.17 402.59 266.85 397.86 270.46 396.11C272.09 395.469 273.845 395.212 275.59 395.36L290.59 395.52C295.26 395.52 300.79 395.16 303.2 391.17C304.089 389.465 304.555 387.572 304.56 385.65C305.21 375.81 303.32 365.41 307.37 356.43C308.59 353.72 300.76 349.43 301.58 346.56C304.4 336.69 305.11 328.92 305.08 318.65C305.08 310.7 310.25 303.85 314.52 297.14C318.79 290.43 322.36 281.96 318.99 274.76C315.19 266.73 286.65 255.06 282.16 266.65Z" fill="#3F3D56"/>
        <path d="M302.13 632.81L305.95 635.34L306.54 635.73L306.65 635.8L311.18 638.8L321.76 640.58L331.06 639.94C331.06 639.94 333.74 634.34 329.53 634.47C328.182 634.401 326.867 634.021 325.69 633.36L325.11 633.07C324.5 632.75 323.89 632.39 323.29 632.01C322.04 631.22 320.86 630.36 319.91 629.63C318.51 628.55 317.58 627.73 317.58 627.73L302.13 632.81Z" fill="#FBBEBE"/>
        <path opacity="0.1" d="M306 635.34L306.59 635.73L306.7 635.8L311.23 638.8L321.81 640.58L331.11 639.94C331.11 639.94 333.79 634.34 329.58 634.47C328.232 634.401 326.917 634.021 325.74 633.36C326.48 633.94 327.1 634.57 327.16 635.1C327.33 636.53 320.28 639.1 320.28 639.1L310.34 636.47C310.34 636.47 308.65 635.99 306.34 635.39L306.12 635.33L306 635.34Z" fill="black"/>
        <path d="M289 637.78C289 637.78 297.15 639.56 302.63 639.05C308.11 638.54 317.55 643.26 317.55 643.26C317.55 643.26 320.74 644.76 330.55 645.4C340.36 646.04 340.36 641.06 340.36 641.06C339.24 634.29 323.74 632.06 323.26 631.96C323.45 632.06 324.26 632.47 325.08 633.02C326.18 633.74 327.37 634.68 327.46 635.44C327.63 636.86 320.58 639.44 320.58 639.44L310.64 636.82C310.64 636.82 308.95 636.33 306.64 635.73H306.42C302.995 634.797 299.515 634.079 296 633.58C291.72 633.12 289.53 636.76 289.08 637.58C289.047 637.644 289.021 637.711 289 637.78V637.78Z" fill="#3F3D56"/>
        <path d="M160.54 457.95L164.87 461.27C164.87 461.27 166.13 461.21 168.01 461.15H168.61C171.3 461.05 175.01 460.95 178.16 460.95C180.196 460.858 182.237 460.972 184.25 461.29C186.41 462.05 190.25 448.93 190.25 448.93L185.91 447.93L184.47 447.59L183.47 447.35L179.94 446.52L169.24 447.74L161.72 452.58L160.54 457.95Z" fill="#FBBEBE"/>
        <path opacity="0.1" d="M160.54 457.95L164.87 461.27C164.87 461.27 166.13 461.21 168.01 461.15C167.147 460.817 166.436 460.181 166.01 459.36C163.21 451.59 177.1 448.27 177.1 448.27L183.57 447.99L184.83 447.93H185.83L184.39 447.59L183.39 447.35L179.86 446.52L169.16 447.74L161.64 452.58L160.54 457.95Z" fill="black"/>
        <path d="M152 461.46C154.62 463.88 171.78 461.46 172.5 461.4C171.198 461.547 169.88 461.455 168.61 461.13C167.981 461.017 167.386 460.766 166.867 460.394C166.348 460.022 165.919 459.539 165.61 458.98C162.81 451.2 176.7 447.89 176.7 447.89L183.17 447.61L184.42 447.55L200.15 446.87L200.91 442.54C200.91 442.54 195.8 443.02 187.78 443.66C183.27 444.03 177.78 444.44 171.85 444.83C155.28 445.93 151.34 456.68 151.34 456.68C151.34 456.68 149.33 458.98 152 461.46Z" fill="#3F3D56"/>
        <path d="M344.45 273.76C344.556 273.997 344.684 274.225 344.83 274.44L348.65 280.04L358.59 281.04L358.7 277.1L360.37 217.82C360.37 217.82 367.25 178.06 354.25 180.35C341.25 182.64 349.41 217.82 349.41 217.82C349.41 217.82 347.93 235.66 346.89 241.02C345.88 246.2 341.35 267.26 344.45 273.76Z" fill="#FBBEBE"/>
        <path d="M322.14 421L324.97 425.84L331.3 436.67C331.3 436.67 342.78 440.88 345.72 437.67C347.33 435.92 349.07 429.81 350.29 424.67C351.29 420.51 351.96 417 351.96 417L322.14 421Z" fill="#FBBEBE"/>
        <path opacity="0.1" d="M322.14 421L324.97 425.84C325.147 425.687 325.308 425.516 325.45 425.33C328.65 421.25 342.74 424.46 350.29 424.72C351.29 420.56 351.96 417.05 351.96 417.05L322.14 421Z" fill="black"/>
        <path opacity="0.1" d="M178.16 460.93C180.196 460.838 182.237 460.952 184.25 461.27C186.41 462.03 190.25 448.91 190.25 448.91L184.47 447.55L200.2 446.87L200.96 442.54C200.96 442.54 195.85 443.02 187.83 443.66C186.173 444.614 184.694 445.849 183.46 447.31L183.22 447.61C179.87 451.72 178.63 457.02 178.16 460.93Z" fill="black"/>
        <path opacity="0.1" d="M302.13 632.81L306.54 635.73C313.12 634.54 319.13 632.67 319.84 629.73C319.843 629.683 319.843 629.637 319.84 629.59C318.44 628.51 317.51 627.69 317.51 627.69L302.13 632.81Z" fill="black"/>
        <path opacity="0.1" d="M289.09 637.61C294.901 637.321 300.69 636.7 306.43 635.75C303.002 634.81 299.519 634.085 296 633.58C291.73 633.12 289.54 636.76 289.09 637.61Z" fill="black"/>
        <path d="M178.64 465.98C178.64 469.17 187.43 471.21 187.43 471.21L214.2 495.04C214.2 495.04 231.02 502.56 241.72 513.39C252.42 524.22 261.86 514.92 261.86 514.92C273.2 512.12 305.86 472.61 305.86 472.61C305.86 472.61 306.62 517.73 308.15 521.04C309.68 524.35 307.64 533.4 306.75 537.23C306.188 540.424 305.974 543.67 306.11 546.91C306.11 546.91 293.88 593.68 294.9 597.76C295.92 601.84 288.27 620.96 288.27 620.96V636.89C288.27 636.89 318.22 635.74 319.87 628.99C321.52 622.24 312.36 619.3 312.36 619.3V617.64C318.36 614.58 319.49 593.56 319.49 593.56C319.49 593.56 328.42 567.56 329.69 563.23C330.96 558.9 329.69 552.39 329.69 552.39L330.58 546.79C330.58 546.79 332.49 542.96 332.49 542.2C332.74 540.259 333.487 538.416 334.66 536.85C336.06 535.19 333.13 531.24 333.13 531.24L335.68 524.61V517.35L341.68 490.97C341.68 490.97 347.93 460.25 345.76 450.18C343.59 440.11 348.31 435.02 348.31 435.02C338.08 440.38 332.92 428.45 331.23 423.32C330.8 422 330.59 421.12 330.59 421.12C330.59 421.12 316.54 415.94 303.46 417.18C300.804 417.395 298.186 417.95 295.67 418.83C281.14 424.06 278.85 445.72 278.85 445.72L265.98 465.35C259.35 482.81 249.41 484.59 249.41 484.59C249.41 484.59 226.09 468.92 225.41 468.15C224.73 467.38 215.85 463.56 215.85 463.56C214.8 461.712 213.194 460.242 211.26 459.36C208.2 458.08 207.95 453.36 207.95 453.36C207.57 442.27 201.07 441.36 201.07 441.36C178.51 439.48 178.64 462.8 178.64 465.98Z" fill="#3F3D56"/>
        <path d="M308.38 403.67H322.14V360.98H308.38V403.67Z" fill="#607D8B"/>
        <path opacity="0.1" d="M308.38 404.67H322.14V361.98H308.38V404.67Z" fill="black"/>
        <path opacity="0.1" d="M344.44 273.67C344.438 273.7 344.438 273.73 344.44 273.76C344.546 273.997 344.674 274.225 344.82 274.44L348.64 280.04L358.58 281.04L358.69 277.1C355.59 276.86 348.53 276.01 344.44 273.67Z" fill="black"/>
        <path d="M344.83 274.44C344.83 274.44 345.34 296.86 339.73 299.92C334.12 302.98 331.94 318.92 331.94 318.92C331.94 318.92 348.94 330.1 352.73 335.02C356.52 339.94 365.22 351.66 363.43 354.46C361.64 357.26 367.77 370.01 367.77 370.01C367.77 370.01 356.55 392.95 359.1 401.62C361.65 410.29 361.9 433.22 361.9 433.22H366.75C366.75 433.22 365.22 414.36 365.22 406.71C365.22 399.06 370.31 371.79 370.31 371.79C370.31 371.79 372.61 345.03 370.31 344.27C368.01 343.51 354.51 332.8 353.49 327.95C352.47 323.1 360.63 277.95 360.63 277.95C360.63 277.95 350.18 277.5 344.83 274.44Z" fill="#607D8B"/>
        <path opacity="0.1" d="M308.12 357.02C308.585 360.14 309.721 363.122 311.45 365.76L320.87 364.16C320.87 364.16 349.16 357.78 355 357.26C358.538 356.793 361.988 355.809 365.24 354.34C362.999 346.397 358.623 339.221 352.59 333.59L349 330.26C343.71 325.348 337.579 321.429 330.9 318.69C331.32 319.04 361 344.38 354.5 349.35C348 354.32 330.5 342.22 330.5 342.22L310.6 325.12L309.88 324.5L308.73 326.29C309.315 326.531 309.886 326.804 310.44 327.11C317.222 330.833 322.255 337.088 324.44 344.51C328.53 358.26 308.12 357.02 308.12 357.02Z" fill="black"/>
        <path d="M302 420.74C302 420.74 320.86 431.19 325.44 425.33C326.44 424.04 328.55 423.48 331.18 423.33C330.75 422.01 330.54 421.13 330.54 421.13C330.54 421.13 316.49 415.95 303.41 417.19C302.55 419.35 302 420.74 302 420.74Z" fill="#444053"/>
        <path d="M310.68 324.52L331.3 342.26C331.3 342.26 348.73 354.4 355.3 349.39C361.87 344.38 331.69 318.72 331.69 318.72C338.355 321.468 344.479 325.375 349.78 330.26L353.37 333.59C362.81 342.34 364.94 342.34 365.26 355.2C365.34 358.37 364.26 362.92 363.43 363.74C360.37 366.74 358.23 388.53 358.7 391.08C359.17 393.63 353 415.64 355 421.76C357 427.88 330 418.7 325.43 424.57C320.86 430.44 302 419.98 302 419.98C302 419.98 312.45 393.21 315 391.43C317.55 389.65 320.61 375.88 315 369.51C309.39 363.14 308.89 357.02 308.89 357.02C308.89 357.02 329.29 358.28 325.2 344.53C324.049 340.545 322.053 336.854 319.347 333.71C316.641 330.566 313.289 328.042 309.52 326.31L310.68 324.52Z" fill="#E8E8F0"/>
        <path opacity="0.1" d="M338.2 369.64C338.2 369.64 330.29 384.55 320.06 388.42C319.73 388.54 319.41 388.65 319.06 388.75C308.38 392 339 374.26 338.2 369.64Z" fill="black"/>
        <path d="M227.58 237.73C227.58 237.73 231.4 247.42 234.46 250.73C237.52 254.04 260.2 287.18 260.2 287.18L262.12 291.18L263.77 294.59L278.3 293.06L279.3 287.2L278.74 286.52C277.28 284.77 273.3 280.07 270.63 278.02C267.32 275.48 260.69 267.07 260.69 267.07C260.69 267.07 240.05 245.65 238.52 239.79C236.99 233.93 216.34 198.79 211.76 204.87C207.18 210.95 227.58 237.73 227.58 237.73Z" fill="#FBBEBE"/>
        <g opacity="0.1">
            <path opacity="0.1" d="M269.74 395.36C267.996 395.209 266.24 395.462 264.61 396.1C261.01 397.85 260.33 402.58 258.33 406.05C255.99 410.11 251.53 412.62 246.94 413.55C246.028 413.727 245.106 413.854 244.18 413.93C247.103 414.214 250.052 414.087 252.94 413.55C257.53 412.62 261.99 410.11 264.33 406.05C266.33 402.58 267.01 397.85 270.61 396.1C271.555 395.675 272.574 395.437 273.61 395.4L269.74 395.36Z" fill="black"/>
            <path opacity="0.1" d="M305.26 318.65C305.26 310.7 310.43 303.85 314.69 297.14C318.95 290.43 322.53 281.96 319.16 274.76C316.28 268.61 298.92 260.36 288.9 261.99C298.71 263.26 310.8 269.72 313.16 274.76C316.53 281.96 312.95 290.43 308.69 297.14C304.43 303.85 299.24 310.7 299.26 318.65C299.26 328.91 298.57 336.65 295.75 346.56C294.94 349.41 302.75 353.72 301.55 356.42C297.49 365.42 299.39 375.8 298.74 385.64C298.726 387.562 298.257 389.454 297.37 391.16C295.37 394.45 291.27 395.3 287.28 395.48H290.77C295.43 395.48 300.96 395.12 303.37 391.13C304.257 389.424 304.726 387.532 304.74 385.61C305.39 375.77 303.49 365.38 307.55 356.39C308.77 353.69 300.94 349.39 301.75 346.53C304.57 336.69 305.28 328.91 305.26 318.65Z" fill="black"/>
        </g>
        <path opacity="0.1" d="M262.12 291.16L263.77 294.57L278.3 293.04L279.3 287.18L278.74 286.5C277.19 287.26 265.58 292.85 262.12 291.16Z" fill="black"/>
        <path opacity="0.1" d="M315.77 329.49C315.77 329.49 312.2 323.89 310.16 325.41C308.12 326.93 307.33 320.82 306.16 321.84C304.99 322.86 301.58 325.7 300.16 321.73C299.05 318.57 286.97 298.58 282.07 290.54C280.81 288.46 280.02 287.18 280.02 287.18C280.02 287.18 266.26 294.06 262.95 291.77V296.61L265.75 296.87L280.75 324.87C280.75 324.87 285.47 332.38 285.15 335C284.83 337.62 291.2 349.09 292.22 349.85C293.24 350.61 304.22 363.36 304.22 363.36C304.22 363.36 309.83 390.89 304.98 398.54C300.13 406.19 291.73 411.79 291.73 411.79C291.73 411.79 289.2 419.18 289.57 419.95C289.94 420.72 286.63 424.03 288.16 425.05C289.69 426.07 291.73 433.2 291.73 433.2C291.73 433.2 298.87 421.73 302.73 419.95C306.59 418.17 311.53 394.71 311.53 394.71C311.53 394.71 312.94 380.89 313.05 371.97C313.16 363.05 312.71 329.49 315.77 329.49Z" fill="black"/>
        <path d="M315 329.49C315 329.49 311.44 323.89 309.4 325.41C307.36 326.93 306.56 320.82 305.4 321.84C304.24 322.86 300.83 325.7 299.4 321.73C298.28 318.57 286.2 298.58 281.31 290.54L279.26 287.18C279.26 287.18 265.5 294.06 262.18 291.77V296.61L264.99 296.87L279.99 324.87C279.99 324.87 284.72 332.38 284.39 335C284.06 337.62 290.39 349.09 291.46 349.85C292.53 350.61 303.46 363.36 303.46 363.36C303.46 363.36 309.07 390.89 304.23 398.54C301.673 402.382 298.563 405.826 295 408.76C292.007 411.229 289.901 414.606 289 418.38C288.826 418.894 288.765 419.44 288.82 419.98C289.19 420.74 285.88 424.06 287.41 425.08C288.94 426.1 291 433.26 291 433.26C291 433.26 298.14 421.79 302 420.01C305.86 418.23 310.81 394.77 310.81 394.77C310.81 394.77 312.21 380.95 312.33 372.03C312.45 363.11 312 329.49 315 329.49Z" fill="#607D8B"/>
        <path opacity="0.1" d="M280.08 445.47C280.08 445.47 290.79 447.47 295.08 450.56C299.37 453.65 278.77 445.72 278.77 445.72L280.08 445.47Z" fill="black"/>
        <path opacity="0.1" d="M305.83 472.61C305.83 472.61 317 481.92 315 490.33C313 498.74 307.84 519.9 307.84 519.9L305.83 472.61Z" fill="black"/>
        <path opacity="0.1" d="M208.14 454.71C208.14 454.71 192.4 456.43 193.42 458.47C194.44 460.51 208.14 456.59 208.14 456.59V454.71Z" fill="black"/>
        <path opacity="0.1" d="M329 532.13C329 532.13 330 533.4 324.16 532.13C318.32 530.86 322.63 526.94 322.63 526.94L329 532.13Z" fill="black"/>
        <path opacity="0.1" d="M327 549.72C327 549.72 319 550.99 314.71 549.72C310.42 548.45 327 549.72 327 549.72Z" fill="black"/>
        <path opacity="0.1" d="M310.54 618.54C310.54 618.54 309.14 617.01 302.13 619.81C295.12 622.61 292.32 622.74 290.28 621.81C288.24 620.88 310.54 618.54 310.54 618.54Z" fill="black"/>
        <path opacity="0.1" d="M318.32 452.54L308.38 466.37C308.38 466.37 313.73 454.26 318.32 452.54Z" fill="black"/>
        <path opacity="0.1" d="M299 325.41C299 325.41 298.57 330 292.16 331.79C285.75 333.58 284.53 335.03 284.53 335.03" fill="black"/>
        <path opacity="0.1" d="M282.34 292.14C282.34 292.14 273.88 298.14 265.05 296.87Z" fill="black"/>
        <path opacity="0.1" d="M288.78 420.61C288.78 420.61 291.25 422.16 297.18 415.38Z" fill="black"/>
        <path opacity="0.1" d="M350.37 348.72C350.61 347.48 349.75 346.33 348.94 345.36L347.28 343.36C346.956 342.951 346.59 342.575 346.19 342.24C345.19 341.47 343.91 341.24 342.87 340.55" fill="black"/>
    </g>
    <defs>
        <linearGradient id="paint0_linear" x1="808.51" y1="504.93" x2="808.51" y2="102.63" gradientUnits="userSpaceOnUse">
            <stop stop-color="#808080" stop-opacity="0.25"/>
            <stop offset="0.54" stop-color="#808080" stop-opacity="0.12"/>
            <stop offset="1" stop-color="#808080" stop-opacity="0.1"/>
        </linearGradient>
        <linearGradient id="paint1_linear" x1="39851.4" y1="250585" x2="89242.9" y2="250585" gradientUnits="userSpaceOnUse">
            <stop stop-color="#808080" stop-opacity="0.25"/>
            <stop offset="0.54" stop-color="#808080" stop-opacity="0.12"/>
            <stop offset="1" stop-color="#808080" stop-opacity="0.1"/>
        </linearGradient>
        <clipPath id="clip0">
            <rect width="1144" height="652.52" fill="white"/>
        </clipPath>
    </defs>
</svg>
