<svg width="1189" height="718" viewBox="0 0 1189 718" fill="none" xmlns="http://www.w3.org/2000/svg">
    <g clip-path="url(#clip0)">
        <path d="M184 225V261C199.117 261 213.616 267.005 224.305 277.695C234.995 288.384 241 302.883 241 318C241 333.117 234.995 347.616 224.305 358.305C213.616 368.995 199.117 375 184 375V411H370V225H184Z" fill="#F2F2F2"/>
        <path d="M184 363C208.853 363 229 342.853 229 318C229 293.147 208.853 273 184 273C159.147 273 139 293.147 139 318C139 342.853 159.147 363 184 363Z" fill="#F2F2F2"/>
        <path d="M866 363.051L793 318.055V666H866V363.051Z" fill="#F2F2F2"/>
        <path d="M681 666H754V294.016L681 249.02V666Z" fill="#F2F2F2"/>
        <path d="M642 224.98L277 0V203H394V437H277V666H642V224.98Z" fill="#F2F2F2"/>
        <path d="M905 387.09V666H943L1046 474L905 387.09Z" fill="#F2F2F2"/>
        <path d="M1046.81 532.892C986.234 578.175 969.153 657.732 969.153 657.732C969.153 657.732 1050.29 663.87 1110.87 618.586C1171.45 573.303 1188.53 493.746 1188.53 493.746C1188.53 493.746 1107.39 487.608 1046.81 532.892Z" fill="#607D8B"/>
        <path d="M969.2 656.964C969.2 656.964 968.311 656.468 966.701 655.479C965.418 654.69 963.656 653.589 961.528 652.183C942.491 639.64 893.176 602.745 872.949 545.819C847.642 474.545 877.525 398.861 877.525 398.861C877.525 398.861 942.711 435.507 970.402 501.33C971.608 504.165 972.725 507.058 973.776 510.006C995.797 572.021 976.033 637.374 970.529 653.304C969.701 655.689 969.2 656.964 969.2 656.964Z" fill="#607D8B"/>
        <path d="M969.494 659.214L968.567 658.541C967.904 658.062 902.156 609.759 885.262 536.543C868.367 463.327 906.303 391.1 906.689 390.379L907.229 389.367L908.156 390.04C908.82 390.519 974.568 438.822 991.461 512.038C1008.36 585.254 970.42 657.481 970.034 658.202L969.494 659.214ZM907.92 392.363C903.361 401.46 871.588 468.392 887.211 536.094C902.832 603.796 960.719 650.038 968.803 656.218C973.363 647.121 1005.13 580.189 989.512 512.487C973.891 444.785 916.004 398.543 907.92 392.363Z" fill="#3F3D56"/>
        <path opacity="0.1" d="M970.529 653.304C969.052 654.164 967.761 654.888 966.701 655.479C964.366 656.755 963.071 657.397 963.071 657.397C963.071 657.397 962.458 655.555 961.528 652.183C956.399 633.738 941.715 569.454 966.29 510.409C967.583 507.316 968.953 504.29 970.402 501.33C971.608 504.165 972.725 507.058 973.776 510.006C995.797 572.021 976.033 637.374 970.529 653.304Z" fill="black"/>
        <path d="M1072.1 554.081C1043.05 623.913 970.107 659.975 970.107 659.975C970.107 659.975 944.267 582.817 973.319 512.985C1002.37 443.153 1075.31 407.092 1075.31 407.092C1075.31 407.092 1101.15 484.25 1072.1 554.081Z" fill="#607D8B"/>
        <path d="M1073.84 409.785L969.893 657.568L971.737 658.341L1075.68 410.559L1073.84 409.785Z" fill="#3F3D56"/>
        <path d="M1177.5 680.491C1177.5 689.856 1123.63 698.422 1034.57 704.997C1018.38 706.188 1001.02 707.314 982.615 708.374C966.705 709.288 950.036 710.147 932.606 710.952C915.714 711.719 898.176 712.431 879.994 713.089C822.558 715.178 759.072 716.678 691.624 717.429C675.259 717.608 658.67 717.75 641.859 717.853C624.359 717.951 606.656 718 588.75 718C263.59 718 0 701.212 0 680.491C0 659.771 263.59 642.983 588.75 642.983C728.733 642.983 857.295 646.099 958.335 651.287C962.054 651.483 965.736 651.673 969.38 651.858C969.402 651.871 969.427 651.877 969.451 651.875C1096.73 658.76 1177.5 669.022 1177.5 680.491Z" fill="#3F3D56"/>
        <path opacity="0.15" d="M1177.5 680.491C1177.5 689.856 1123.63 698.422 1034.57 704.997C1018.38 706.188 1001.02 707.314 982.615 708.374C966.705 709.288 950.036 710.147 932.606 710.952C915.714 711.719 898.176 712.431 879.994 713.089C822.558 715.178 759.072 716.678 691.624 717.429C675.259 717.608 658.67 717.75 641.859 717.853C624.359 717.951 606.656 718 588.75 718C263.59 718 0 701.212 0 680.491C0 659.771 263.59 642.983 588.75 642.983C728.733 642.983 857.295 646.099 958.335 651.287C962.054 651.483 965.736 651.673 969.38 651.858C969.402 651.871 969.427 651.877 969.451 651.875C1096.73 658.76 1177.5 669.022 1177.5 680.491Z" fill="black"/>
        <path d="M1132.25 673.89C1132.25 681.72 1082.03 688.88 999 694.38C983.91 695.37 967.72 696.31 950.57 697.2C935.74 697.96 920.2 698.677 903.95 699.35C888.2 700 871.85 700.597 854.9 701.14C801.35 702.89 742.16 704.14 679.28 704.77C664.03 704.92 648.567 705.037 632.89 705.12C616.57 705.21 600.067 705.253 583.38 705.25C280.24 705.25 34.5 691.21 34.5 673.89C34.5 656.57 280.24 642.53 583.38 642.53C650.41 642.53 714.63 643.22 774.01 644.48H774.16C830.32 645.67 882.15 647.37 927.93 649.48C931.4 649.64 934.833 649.797 938.23 649.95C938.25 649.966 938.275 649.973 938.3 649.97C959.27 650.99 978.89 652.09 996.97 653.27C997.17 653.28 997.37 653.3 997.57 653.31C1081.46 658.82 1132.25 666.01 1132.25 673.89Z" fill="#BDBDBD"/>
        <path opacity="0.1" d="M996.97 653.27C989.54 701.58 942.69 685.39 886 685.39C826.11 685.39 777.21 703.46 774.16 644.48C830.32 645.67 882.15 647.37 927.93 649.48C931.4 649.64 934.833 649.797 938.23 649.95C938.25 649.966 938.275 649.973 938.3 649.97C959.27 650.99 978.89 652.09 996.97 653.27Z" fill="black"/>
        <path d="M317.277 638.573C317.277 655.99 306.924 662.071 294.151 662.071C293.856 662.071 293.56 662.067 293.266 662.06C292.674 662.048 292.087 662.02 291.508 661.979C279.981 661.164 271.026 654.77 271.026 638.573C271.026 621.814 292.442 600.664 294.056 599.095L294.058 599.093C294.12 599.032 294.151 599.002 294.151 599.002C294.151 599.002 317.277 621.159 317.277 638.573Z" fill="#607D8B"/>
        <path d="M293.309 659.406L301.767 647.589L293.287 660.704L293.266 662.06C292.674 662.048 292.087 662.02 291.508 661.979L292.419 644.556L292.413 644.42L292.428 644.397L292.515 642.749L284.014 629.602L292.54 641.515L292.562 641.864L293.249 628.7L285.972 615.114L293.338 626.39L294.056 599.095L294.058 599.002V599.093L293.939 620.616L301.184 612.083L293.909 622.47L293.717 634.257L300.484 622.944L293.69 635.991L293.583 642.545L303.402 626.799L293.545 644.831L293.309 659.406Z" fill="#3F3D56"/>
        <path d="M774 626.393C774 560.119 824.144 506.393 886 506.393C947.856 506.393 998 560.119 998 626.393C998 692.668 947.856 673.393 886 673.393C824.144 673.393 774 692.668 774 626.393Z" fill="#BDBDBD"/>
        <path d="M153.384 547.331H151.384V682.512H153.384V547.331Z" fill="#3F3D56"/>
        <path d="M152.384 566.448C162.941 566.448 171.5 557.889 171.5 547.331C171.5 536.774 162.941 528.215 152.384 528.215C141.826 528.215 133.267 536.774 133.267 547.331C133.267 557.889 141.826 566.448 152.384 566.448Z" fill="#607D8B"/>
        <path d="M152.384 630.646C152.384 630.646 149.653 571.91 93.669 578.737Z" fill="#607D8B"/>
        <path d="M709.014 569.574C709.513 571.339 710.07 573.091 710.665 574.832C707.995 572.207 705.375 569.512 702.705 566.903C703.776 567.237 704.844 567.57 705.854 567.966C706.955 568.403 708.013 568.941 709.014 569.574V569.574ZM696.082 560.809C680.346 547.127 662.114 536.535 645.989 523.271C654.795 527.603 663.36 532.651 671.856 537.491C681.935 543.233 692.133 548.751 702.451 554.046C700.77 556.679 698.609 558.973 696.082 560.809V560.809ZM702.812 526.358C703.063 526.102 703.314 525.844 703.566 525.585C703.573 527.529 703.588 529.346 703.611 530.996C702.201 530.529 700.795 530.049 699.393 529.557C700.599 528.564 701.741 527.495 702.812 526.358V526.358ZM564.207 563.398C570.691 556.074 576.324 548.039 580.997 539.446C587.244 550.359 597.395 558.229 606.029 567.369C592.118 565.533 578.184 564.017 564.207 563.398Z" fill="url(#paint0_linear)"/>
        <path d="M117.277 664.573C117.277 681.99 106.924 688.071 94.1515 688.071C93.8556 688.071 93.5598 688.067 93.2661 688.06C92.6744 688.048 92.0869 688.02 91.508 687.979C79.9805 687.164 71.0262 680.77 71.0262 664.573C71.0262 647.814 92.4424 626.664 94.0557 625.095L94.0578 625.093C94.1196 625.032 94.1515 625.002 94.1515 625.002C94.1515 625.002 117.277 647.159 117.277 664.573Z" fill="#607D8B"/>
        <path d="M93.3086 685.406L101.767 673.589L93.2873 686.704L93.2661 688.06C92.6744 688.048 92.0869 688.02 91.508 687.979L92.419 670.556L92.4126 670.42L92.4275 670.397L92.5148 668.749L84.0139 655.602L92.5403 667.515L92.5616 667.864L93.249 654.7L85.972 641.114L93.3384 652.39L94.0557 625.095L94.0578 625.002V625.093L93.9386 646.616L101.184 638.083L93.9089 648.47L93.7173 660.257L100.484 648.944L93.6896 661.991L93.5832 668.545L103.402 652.799L93.5449 670.831L93.3086 685.406Z" fill="#3F3D56"/>
        <path d="M771.988 376.032C771.988 376.032 808.266 368 812.266 400C816.266 432 793 438.04 793 438.04L778.266 442L721.266 427L729.266 404L771.988 376.032Z" fill="#2F2E41"/>
        <path d="M758.915 377.797C785.99 377.797 807.939 355.849 807.939 328.774C807.939 301.699 785.99 279.75 758.915 279.75C731.84 279.75 709.892 301.699 709.892 328.774C709.892 355.849 731.84 377.797 758.915 377.797Z" fill="#2F2E41"/>
        <path d="M586.65 430.572L596.611 432.575L630.477 482.652L615.536 484.655L586.65 430.572Z" fill="#2F2E41"/>
        <path d="M345.722 633.748C348.407 642.587 351.715 651.224 355.621 659.596C366.846 657.247 377.89 654.1 388.668 650.18C389 650.059 382.487 641.54 381.803 640.844C379.222 638.218 375.882 635.15 372.47 633.666C369.03 632.169 364.793 633.311 361.111 633.499C355.986 633.761 350.857 633.844 345.722 633.748Z" fill="#FBBEBE"/>
        <path d="M372.529 647.126C366.915 645.369 363.503 639.719 361.219 634.271C358.936 628.823 357.094 622.882 352.763 618.884C351.103 618.963 349.766 620.312 348.945 621.764C348.124 623.217 347.635 624.854 346.686 626.225C344.88 628.835 341.705 630.097 339.434 632.31C337.053 634.63 335.751 637.914 333.287 640.144C330.191 642.945 325.815 643.641 321.753 644.567C315.471 646.002 309.404 648.252 303.705 651.259C301.606 652.524 299.361 653.53 297.019 654.255C294.442 654.75 291.804 654.838 289.2 654.516L271.243 653.237C269.645 653.031 268.023 653.102 266.449 653.446C262.758 654.483 260.466 658.603 260.737 662.447C261.008 666.291 263.399 669.736 266.42 672.109C269.545 674.345 272.994 676.093 276.646 677.29C292.289 683.195 308.393 687.795 324.794 691.044L324.803 694.598C336.208 700.206 348.746 703.126 361.455 703.132C362.395 703.203 363.337 703.039 364.199 702.657C365.459 701.972 366.042 700.5 366.508 699.139C370.817 686.54 373.338 673.399 373.998 660.101C374.317 656.729 374.056 653.328 373.225 650.045C372.247 646.812 375.615 648.171 372.499 646.905" fill="#2F2E41"/>
        <path d="M716.934 579.431C663.694 582.618 611.073 567.035 557.765 565.369C551.137 565.162 544.438 565.177 537.966 566.631C531.121 568.168 524.739 571.266 518.373 574.227C489.782 587.53 460.205 598.548 430.663 609.551L396.727 622.191C389.946 624.717 382.919 627.282 375.7 626.841C372.465 626.643 368.493 626.153 366.672 628.85C361.151 637.029 363.76 649.046 367.408 658.225C368.592 661.204 370.595 664.419 373.768 664.758C376.002 664.997 378.079 663.704 380.249 663.122C386.426 661.468 392.585 665.623 398.942 666.299C406.796 667.135 414.088 662.661 421.501 659.921C433.796 655.377 447.239 655.52 460.161 653.368C481.83 649.759 501.913 639.698 520.687 628.235C527.835 623.87 535.069 619.194 543.281 617.597C552.723 615.762 562.422 618.194 571.679 620.813C593.754 627.06 615.487 634.46 636.786 642.984C648.001 647.472 659.136 652.284 670.804 655.389C696.045 662.034 722.746 660.477 747.044 650.943C755.565 647.576 764.825 641.622 765.313 632.428C765.591 627.186 761.526 622.568 758.809 618.085C757.067 615.21 755.324 612.334 753.427 609.56C744.246 596.139 733.105 578.462 716.934 579.431Z" fill="#2F2E41"/>
        <path opacity="0.1" d="M716.934 579.431C663.694 582.618 611.073 567.035 557.765 565.369C551.137 565.162 544.438 565.177 537.966 566.631C531.121 568.168 524.739 571.266 518.373 574.227C489.782 587.53 460.205 598.548 430.663 609.551L396.727 622.191C389.946 624.717 382.919 627.282 375.7 626.841C372.465 626.643 368.493 626.153 366.672 628.85C361.151 637.029 363.76 649.046 367.408 658.225C368.592 661.204 370.595 664.419 373.768 664.758C376.002 664.997 378.079 663.704 380.249 663.122C386.426 661.468 392.585 665.623 398.942 666.299C406.796 667.135 414.088 662.661 421.501 659.921C433.796 655.377 447.239 655.52 460.161 653.368C481.83 649.759 501.913 639.698 520.687 628.235C527.835 623.87 535.069 619.194 543.281 617.597C552.723 615.762 562.422 618.194 571.679 620.813C593.754 627.06 615.487 634.46 636.786 642.984C648.001 647.472 659.136 652.284 670.804 655.389C696.045 662.034 722.746 660.477 747.044 650.943C755.565 647.576 764.825 641.622 765.313 632.428C765.591 627.186 761.526 622.568 758.809 618.085C757.067 615.21 755.324 612.334 753.427 609.56C744.246 596.139 733.105 578.462 716.934 579.431Z" fill="black"/>
        <path d="M447.939 636.34C456.273 639.184 464.68 641.799 473.159 644.185C477.906 636.391 486.786 630.968 488.81 622.059C488.935 621.671 488.936 621.253 488.811 620.865C488.595 620.484 488.26 620.184 487.857 620.011C481.783 616.646 475.038 614.67 468.109 614.225C462.636 613.879 460.139 619.592 457.658 623.608C456.654 625.234 450.169 637.101 447.939 636.34Z" fill="#FBBEBE"/>
        <path d="M459.62 630.651C454.699 629.62 449.882 626.974 447.37 622.596C446.192 620.544 444.94 617.779 442.59 617.934C440.408 618.078 439.406 620.681 438.915 622.823C437.075 630.845 435.269 638.931 432.041 646.498C428.814 654.064 424.04 661.167 417.306 665.851C414.218 667.999 410.775 669.603 407.757 671.849C405.044 673.867 402.68 676.397 399.684 677.958C397.679 678.877 395.61 679.648 393.493 680.267C390.378 681.352 387.402 682.8 384.626 684.582C382.186 686 380.117 687.977 378.589 690.351C377.839 691.548 377.4 692.914 377.313 694.324C377.226 695.734 377.494 697.144 378.092 698.424C378.735 699.478 379.594 700.383 380.613 701.081C381.631 701.778 382.786 702.252 384.001 702.471C386.427 702.889 388.902 702.951 391.346 702.655C401.053 701.94 410.749 701.075 420.444 700.211C424.546 699.947 428.622 699.38 432.64 698.515C434.764 698.003 436.845 697.324 438.961 696.779C442.587 695.844 446.304 695.303 450.046 695.164C451.133 695.072 452.228 695.172 453.281 695.46C455.527 696.194 457.12 698.428 459.439 698.882C460.926 699.024 462.426 698.823 463.824 698.296C470.809 696.385 478.149 696.437 485.378 696.047C488.563 695.875 492.291 695.27 493.752 692.419C495.574 688.864 492.552 684.888 491.348 681.076C490.748 678.64 490.413 676.146 490.35 673.638C489.794 667.44 487.975 661.421 485.003 655.954C482.532 651.416 479.158 646.399 480.895 641.53C481.484 639.877 482.656 638.339 482.539 636.587C482.028 628.895 464.083 631.587 459.62 630.651Z" fill="#2F2E41"/>
        <path d="M637.094 494.017C627.66 489.86 620.101 482.353 615.881 472.946C614.992 470.925 614.261 468.814 613.405 466.773C610.613 459.994 606.271 453.964 600.727 449.167C599.34 447.991 597.714 446.869 596.02 447.176C594.395 447.472 593.116 449.08 592.559 450.883C592.082 452.74 591.963 454.67 592.207 456.572C592.681 461.054 593.452 465.499 594.514 469.879L597.094 481.635C597.414 483.443 597.953 485.205 598.7 486.883C599.814 488.861 601.282 490.618 603.031 492.064C605.388 494.235 607.783 496.348 610.217 498.403C613.597 501.646 618.004 503.606 622.676 503.943C633.249 505.903 644.002 508.727 652.924 515.627C652.825 515.551 652.886 507.742 652.732 506.847C652.323 504.481 652.005 502.138 650.466 500.539C647.007 496.945 641.307 495.89 637.094 494.017Z" fill="#FBBEBE"/>
        <path opacity="0.1" d="M637.094 494.017C627.66 489.86 620.101 482.353 615.881 472.946C614.992 470.925 614.261 468.814 613.405 466.773C610.613 459.994 606.271 453.964 600.727 449.167C599.34 447.991 597.714 446.869 596.02 447.176C594.395 447.472 593.116 449.08 592.559 450.883C592.082 452.74 591.963 454.67 592.207 456.572C592.681 461.054 593.452 465.499 594.514 469.879L597.094 481.635C597.414 483.443 597.953 485.205 598.7 486.883C599.814 488.861 601.282 490.618 603.031 492.064C605.388 494.235 607.783 496.348 610.217 498.403C613.597 501.646 618.004 503.606 622.676 503.943C633.249 505.903 644.002 508.727 652.924 515.627C652.825 515.551 652.886 507.742 652.732 506.847C652.323 504.481 652.005 502.138 650.466 500.539C647.007 496.945 641.307 495.89 637.094 494.017Z" fill="black"/>
        <path d="M745.521 404.031C752.672 404.031 758.47 398.202 758.47 391.011C758.47 383.82 752.672 377.991 745.521 377.991C738.37 377.991 732.572 383.82 732.572 391.011C732.572 398.202 738.37 404.031 745.521 404.031Z" fill="#2F2E41"/>
        <path d="M737.505 383.145C733.99 382.755 730.086 382.466 727.27 384.616C725.776 385.938 724.581 387.564 723.768 389.385C721.06 394.468 718.391 399.647 717.028 405.248C715.872 410 715.68 414.97 714.249 419.645C711.594 428.319 704.791 435.639 704.013 444.681C703.665 448.727 704.343 453.464 701.391 456.236C700.662 456.849 699.884 457.401 699.064 457.886C697.017 459.257 695.281 461.042 693.968 463.127C692.863 464.882 692.012 466.899 690.348 468.132C687.715 470.084 683.343 469.885 682.045 472.904C680.711 476.007 684.096 479.46 683.312 482.746C682.673 485.423 679.689 486.65 677.634 488.469C675.001 490.799 673.797 494.315 672.7 497.665C668.368 498.485 663.911 498.357 659.633 497.29C655.356 496.223 651.36 494.243 647.921 491.486C651.536 500.388 651.614 510.214 651.771 519.829C651.822 522.948 651.725 526.448 649.498 528.621C659.807 528.841 669.861 531.634 679.921 533.908C684.318 534.902 689.091 535.764 693.191 533.884C695.491 532.652 697.55 531.014 699.268 529.05C704.741 523.5 710.482 517.446 711.821 509.747C712.571 505.434 711.845 501.007 712.043 496.632C712.289 491.212 713.947 485.974 715.366 480.739C718.269 470.025 720.215 459.073 721.181 448.014C721.777 441.189 727.671 435.697 730.774 429.598C736.632 418.084 742.618 406.092 743.06 393.167C743.207 388.844 741.781 383.619 737.505 383.145Z" fill="#2F2E41"/>
        <path opacity="0.1" d="M737.505 383.145C733.99 382.755 730.086 382.466 727.27 384.616C725.776 385.938 724.581 387.564 723.768 389.385C721.06 394.468 718.391 399.647 717.028 405.248C715.872 410 715.68 414.97 714.249 419.645C711.594 428.319 704.791 435.639 704.013 444.681C703.665 448.727 704.343 453.464 701.391 456.236C700.662 456.849 699.884 457.401 699.064 457.886C697.017 459.257 695.281 461.042 693.968 463.127C692.863 464.882 692.012 466.899 690.348 468.132C687.715 470.084 683.343 469.885 682.045 472.904C680.711 476.007 684.096 479.46 683.312 482.746C682.673 485.423 679.689 486.65 677.634 488.469C675.001 490.799 673.797 494.315 672.7 497.665C668.368 498.485 663.911 498.357 659.633 497.29C655.356 496.223 651.36 494.243 647.921 491.486C651.536 500.388 651.614 510.214 651.771 519.829C651.822 522.948 651.725 526.448 649.498 528.621C659.807 528.841 669.861 531.634 679.921 533.908C684.318 534.902 689.091 535.764 693.191 533.884C695.491 532.652 697.55 531.014 699.268 529.05C704.741 523.5 710.482 517.446 711.821 509.747C712.571 505.434 711.845 501.007 712.043 496.632C712.289 491.212 713.947 485.974 715.366 480.739C718.269 470.025 720.215 459.073 721.181 448.014C721.777 441.189 727.671 435.697 730.774 429.598C736.632 418.084 742.618 406.092 743.06 393.167C743.207 388.844 741.781 383.619 737.505 383.145Z" fill="black"/>
        <path d="M725.378 590.643C714.29 585.368 706.176 575.53 697.211 567.112C680.095 551.04 659.165 539.663 641.169 524.595C629.241 514.607 618.572 502.977 605.464 494.615C593.919 487.264 580.833 482.679 567.225 481.216C565.666 480.949 564.067 481.029 562.542 481.45C560.823 482.21 559.325 483.395 558.189 484.893C552.382 491.446 547.22 498.544 542.776 506.088C519.966 544.809 487.567 577.366 460.724 613.378C459.867 614.225 459.358 615.362 459.299 616.566C459.239 617.77 459.634 618.952 460.403 619.879L465.864 630.579C468.919 636.566 473.814 643.54 480.401 642.35C483.412 641.807 485.81 639.592 488.027 637.473L512.539 614.041L538.24 589.474C553.298 575.08 568.614 560.351 578.43 541.939C586.102 555.245 599.713 563.953 609.052 576.134C612.604 580.767 615.506 585.862 618.677 590.767C623.76 598.629 629.54 606.008 635.312 613.375L664.792 651.003C668.812 656.135 672.944 661.369 678.442 664.85C685.424 669.27 693.916 670.435 702.134 671.171C713.208 672.162 724.328 672.564 735.445 672.375C743.921 672.23 752.662 671.674 760.268 667.91C767.873 664.146 774.121 656.418 773.726 647.904C773.52 643.476 771.595 639.323 769.477 635.436C758.946 616.115 745.184 600.066 725.378 590.643Z" fill="#2F2E41"/>
        <path d="M753.489 410.04C758.99 410.04 763.45 405.556 763.45 400.025C763.45 394.493 758.99 390.009 753.489 390.009C747.988 390.009 743.529 394.493 743.529 400.025C743.529 405.556 747.988 410.04 753.489 410.04Z" fill="#2F2E41"/>
        <path d="M751.287 392.499C753.715 396.787 753.717 402.124 752.381 406.871C751.045 411.618 748.493 415.913 745.97 420.144C743.486 424.308 740.974 428.51 737.642 432.025C753.016 432.761 767.921 426.731 781.488 419.423C792.404 413.545 803.296 406.288 809.121 395.301C805.714 396.325 801.96 395.315 798.944 393.42C796.016 391.379 793.39 388.934 791.146 386.157L783.428 377.474C781.615 375.583 780.022 373.493 778.68 371.243C777.009 368.165 776.3 364.656 776.643 361.171C773.576 364.38 770.149 367.224 766.429 369.646C760.916 373.234 754.839 375.837 749.314 379.404C747.355 380.669 742.999 382.703 744.12 385.264C745.214 387.761 749.734 389.756 751.287 392.499Z" fill="#FBBEBE"/>
        <path opacity="0.1" d="M751.287 392.499C753.715 396.787 753.717 402.124 752.381 406.871C751.045 411.618 748.493 415.913 745.97 420.144C743.486 424.308 740.974 428.51 737.642 432.025C753.016 432.761 767.921 426.731 781.488 419.423C792.404 413.545 803.296 406.288 809.121 395.301C805.714 396.325 801.96 395.315 798.944 393.42C796.016 391.379 793.39 388.934 791.146 386.157L783.428 377.474C781.615 375.583 780.022 373.493 778.68 371.243C777.009 368.165 776.3 364.656 776.643 361.171C773.576 364.38 770.149 367.224 766.429 369.646C760.916 373.234 754.839 375.837 749.314 379.404C747.355 380.669 742.999 382.703 744.12 385.264C745.214 387.761 749.734 389.756 751.287 392.499Z" fill="black"/>
        <path d="M751.497 394.015C748.608 398.874 747.988 404.611 751.497 409.039C751.934 409.589 753.556 413.009 754.256 413.041C754.934 412.985 755.564 412.666 756.011 412.153C759.745 408.74 762.48 404.387 765.76 400.531C769.041 396.675 773.178 393.162 778.165 392.385C784.184 391.448 789.995 394.637 795.261 397.714C797.45 398.992 799.72 400.347 801.098 402.482C802.207 404.486 802.861 406.711 803.014 408.996C804.833 422.702 804.793 436.581 804.75 450.408C804.719 460.403 804.681 470.469 802.791 480.282C801.813 485.354 800.346 490.332 799.651 495.451C799.142 499.968 798.935 504.515 799.033 509.061L799.018 528.09C798.891 531.585 799.139 535.083 799.756 538.525C800.66 542.695 802.633 546.544 803.952 550.601C805.312 555.263 806.242 560.041 806.732 564.873L809.336 584.578C810.157 590.784 810.763 597.573 807.01 602.568C805.314 604.827 803.084 606.635 801.364 608.875C794.922 617.264 796.989 629.233 794.302 639.482C792.181 646.987 787.823 653.668 781.808 658.633C777.205 662.544 771.26 665.621 765.333 664.521C757.332 663.035 752.526 654.693 750.345 646.811C748.164 638.929 747.369 630.349 742.642 623.69C738.783 618.253 732.804 614.833 727.397 610.952C721.991 607.07 716.708 602.067 715.531 595.492C715.017 592.621 715.337 589.664 715.032 586.763C714.602 583.087 713.192 579.594 710.95 576.649C708.707 573.704 705.715 571.417 702.285 570.024C698.19 568.432 693.131 567.863 690.825 564.105C696.78 560.749 700.733 554.547 702.816 548.01C704.898 541.474 705.323 534.537 705.732 527.686L707.101 504.788C707.712 494.555 707.989 484.413 712.496 475.217C714.511 471.106 717.017 467.258 719.114 463.189C721.889 457.48 724.257 451.583 726.204 445.541C729.471 436.159 732.738 426.774 735.65 417.274C737.038 412.747 738.371 408.134 740.845 404.103C743.318 400.071 746.867 394.886 751.497 394.015Z" fill="#607D8B"/>
        <path d="M700.65 542.777L706.706 542.995L707.997 533.838C708.167 532.007 708.599 530.209 709.28 528.5C710.279 526.693 711.445 524.984 712.763 523.395C718.727 514.971 718.292 503.784 719.77 493.55C721.74 479.901 727.442 467.122 733.082 454.55L744.844 428.333C747.19 423.883 748.312 418.889 748.096 413.863C748.2 409.81 749.401 395.064 749.505 391.011C749.544 389.511 746.198 390.344 745.521 389.008C744.045 386.097 742.028 393.991 739.273 395.722C736.518 397.454 734.998 400.591 733.828 403.639C731.293 410.243 729.744 417.188 727.382 423.857C725.02 430.525 721.716 437.077 716.402 441.72C713.987 443.83 711.205 445.503 708.924 447.759C701.607 454.995 700.894 466.422 700.636 476.739C700.483 482.872 699.298 542.777 700.65 542.777Z" fill="#2F2E41"/>
        <path d="M787.878 383.083C781.993 385.397 778.766 391.779 777.112 397.911C775.458 404.043 774.785 410.579 771.624 416.081C764.235 428.941 745.395 432.689 740.181 446.586C738.476 451.133 738.549 456.122 738.09 460.96C737.144 470.918 733.87 480.538 732.902 490.493C732.153 498.206 732.8 505.979 733.447 513.701L740.032 592.236C740.983 603.58 740.959 615.766 738.06 626.77C744.726 628.071 751.658 626.33 757.843 623.51C764.027 620.691 769.673 616.819 775.626 613.535C785.863 607.887 797.152 603.886 806.117 596.363C807.739 595.099 809.13 593.563 810.225 591.822C812.021 588.717 812.169 584.961 813.023 581.473C813.798 578.691 814.785 575.971 815.975 573.339C819.256 565.425 822.115 557.342 824.54 549.125C826.206 543.672 827.522 538.118 828.479 532.498C829.198 528.021 829.586 523.499 829.973 518.981C830.451 511.908 831.856 504.928 834.153 498.222C839.881 482.229 843.124 465.452 843.77 448.476C843.964 446.024 843.797 443.557 843.275 441.153C842.495 438.172 840.735 435.566 839.292 432.847C836.556 427.692 834.912 422.02 832.33 416.786C826.494 404.958 816.189 395.991 805.393 388.476C800.091 384.785 793.884 380.721 787.878 383.083Z" fill="#2F2E41"/>
        <path d="M650.214 511.202C645.657 508.549 641.102 505.691 637.672 501.674C636.029 499.749 634.673 497.588 633.002 495.687C628.939 491.063 623.181 488.196 617.228 486.697C611.275 485.198 605.084 484.97 598.948 484.919C594.843 484.884 590.636 484.943 586.793 486.394C582.95 487.845 579.484 490.974 578.741 495.034C577.847 499.919 581.039 504.679 584.871 507.812C588.436 510.722 592.631 512.759 597.123 513.76C600.787 514.401 604.485 514.835 608.198 515.057C630.002 517.34 649.454 529.208 668.561 540.014C685.341 549.504 702.448 558.377 719.882 566.633C720.573 561.411 720.861 556.145 720.742 550.879C720.653 546.947 720.459 540.953 716.745 538.644C712.417 535.954 705.292 535.336 700.41 533.736C689.176 530.053 678.203 525.614 667.568 520.451C661.671 517.587 655.886 514.505 650.214 511.202Z" fill="#FBBEBE"/>
        <path d="M745.521 388.006C766.975 388.006 784.367 370.518 784.367 348.946C784.367 327.374 766.975 309.886 745.521 309.886C724.067 309.886 706.675 327.374 706.675 348.946C706.675 370.518 724.067 388.006 745.521 388.006Z" fill="#FBBEBE"/>
        <path d="M798.984 427.368C795.514 431.413 793.777 436.624 791.446 441.425C786.649 451.302 779.126 459.781 775.359 470.1C771.384 480.986 771.517 493.935 763.726 502.486C762.371 503.972 760.736 505.407 760.344 507.385C760.112 508.559 760.353 509.815 759.948 510.941C758.832 514.047 753.747 514.204 752.798 517.366C752.52 518.291 752.676 519.316 752.333 520.219C751.553 522.264 748.852 522.576 747.047 523.801C743.276 526.359 744.036 532.306 741.346 535.993C739.217 538.91 735.203 539.887 731.639 539.393C728.074 538.898 724.809 537.192 721.563 535.631C720.448 535.003 719.213 534.615 717.939 534.493C716.434 534.544 714.978 535.041 713.755 535.921C706.58 540.484 703.211 549.521 703.261 558.058C703.311 566.594 706.244 574.819 709.248 582.804C709.658 584.151 710.33 585.404 711.228 586.49C713.607 589.006 717.75 588.6 720.91 587.2C724.069 585.801 726.939 583.599 730.337 582.983C736.348 581.894 742.223 586.025 748.321 585.685C752.789 585.436 756.743 582.838 760.454 580.325C766.379 576.314 772.413 572.203 776.769 566.511C779.436 563.026 781.39 559.053 783.716 555.328C786.706 550.758 789.983 546.382 793.526 542.226L815.926 514.808C821.308 508.948 825.014 501.748 826.654 493.963C828.784 486.656 830.928 479.265 831.297 471.659C831.6 465.399 830.691 459.148 829.67 452.965C828.665 446.878 827.52 440.724 824.846 435.171C819.98 425.064 808.132 416.7 798.984 427.368Z" fill="#2F2E41"/>
        <path d="M812.024 313.25C839.099 313.25 861.047 291.301 861.047 264.226C861.047 237.152 839.099 215.203 812.024 215.203C784.949 215.203 763.001 237.152 763.001 264.226C763.001 291.301 784.949 313.25 812.024 313.25Z" fill="#2F2E41"/>
        <path d="M854.309 304.821C847.964 309.407 840.613 312.407 832.871 313.569C825.129 314.732 817.221 314.023 809.808 311.503C802.396 308.982 795.695 304.724 790.267 299.083C784.838 293.442 780.839 286.583 778.604 279.079C779.45 285.804 781.68 292.279 785.155 298.098C788.629 303.917 793.273 308.952 798.791 312.885C804.31 316.819 810.584 319.566 817.218 320.952C823.852 322.338 830.701 322.334 837.333 320.94C843.965 319.546 850.236 316.792 855.75 312.852C861.264 308.911 865.902 303.871 869.369 298.048C872.837 292.225 875.06 285.747 875.897 279.022C876.735 272.297 876.169 265.471 874.236 258.975C875.334 267.702 874.063 276.563 870.557 284.63C867.051 292.696 861.439 299.67 854.309 304.821V304.821Z" fill="#2F2E41"/>
        <path d="M771.988 372.895C791.843 372.895 807.939 356.799 807.939 336.944C807.939 317.089 791.843 300.994 771.988 300.994C752.133 300.994 736.038 317.089 736.038 336.944C736.038 356.799 752.133 372.895 771.988 372.895Z" fill="#2F2E41"/>
        <path d="M741.757 348.383C759.356 348.383 773.622 337.226 773.622 323.463C773.622 309.7 759.356 298.543 741.757 298.543C724.158 298.543 709.892 309.7 709.892 323.463C709.892 337.226 724.158 348.383 741.757 348.383Z" fill="#2F2E41"/>
        <path d="M753.998 368.319C756.14 366.577 755.758 362.559 753.145 359.346C750.532 356.132 746.677 354.939 744.534 356.681C742.392 358.423 742.773 362.441 745.387 365.655C748 368.868 751.855 370.061 753.998 368.319Z" fill="#FBBEBE"/>
        <path d="M714.277 680.573C714.277 697.99 703.924 704.071 691.151 704.071C690.856 704.071 690.56 704.067 690.266 704.06C689.674 704.048 689.087 704.02 688.508 703.979C676.981 703.164 668.026 696.77 668.026 680.573C668.026 663.814 689.442 642.664 691.056 641.095L691.058 641.093C691.12 641.032 691.151 641.002 691.151 641.002C691.151 641.002 714.277 663.159 714.277 680.573Z" fill="#607D8B"/>
        <path d="M690.309 701.406L698.767 689.589L690.287 702.704L690.266 704.06C689.674 704.048 689.087 704.02 688.508 703.979L689.419 686.556L689.413 686.42L689.427 686.397L689.515 684.749L681.014 671.602L689.54 683.515L689.562 683.864L690.249 670.7L682.972 657.114L690.338 668.39L691.056 641.095L691.058 641.002V641.093L690.939 662.616L698.184 654.083L690.909 664.47L690.717 676.257L697.484 664.944L690.69 677.991L690.583 684.545L700.402 668.799L690.545 686.831L690.309 701.406Z" fill="#3F3D56"/>
    </g>
    <defs>
        <linearGradient id="paint0_linear" x1="637.436" y1="574.832" x2="637.436" y2="523.271" gradientUnits="userSpaceOnUse">
            <stop stop-color="#808080" stop-opacity="0.25"/>
            <stop offset="0.53514" stop-color="#808080" stop-opacity="0.12"/>
            <stop offset="1" stop-color="#808080" stop-opacity="0.1"/>
        </linearGradient>
        <clipPath id="clip0">
            <rect width="1188.53" height="718" fill="white"/>
        </clipPath>
    </defs>
</svg>
