<svg width="113" height="117" xmlns="http://www.w3.org/2000/svg">

 <g>
  <title>background</title>
  <rect fill="none" id="canvas_background" height="119" width="115" y="-1" x="-1"/>
 </g>
 <g>
  <title>Layer 1</title>
  <g fill="#FFF7F7F7" id="SvgjsG1026">
   <path id="svg_1" fill=" #FFF7F7F7"
         d="m5.91,163.868602c0,-7.63 0,-15.21 0,-22.84l-0.26,-6.75l0.26,0c1.93,10.35 3.61,20.18 5.33,30.58c0.16,1 0.68,1.47 1.78,1.47l4.34,0l5.75,-32.41l0.21,0l-0.16,5.23c0,8.2 0,16.41 0,24.62l-2.3,1.56l0,1.52c2.98,0 7,0 9.98,0l0,-1.52l-2.3,-1.56c0,-10.25 0,-20.44 0,-30.69l2.04,-1.36l0,-1.51c-2.98,0 -4.6,0.05 -7.58,0.05c-1.98,-0.05 -2.66,0.31 -3.08,2.25l-4.65,27.6l-0.11,0c-1.2,-10.25 -2.35,-17.15 -4.29,-27.45c-0.47,-1.98 -1.15,-2.45 -3.08,-2.45c-2.77,0 -4.91,0 -7.68,0l0,1.51l2.09,1.36c0,10.25 0,20.55 0,30.79l-2.2,1.36l0,1.62c2.56,0 5.54,0 8.1,0l0,-1.62l-2.19,-1.36zm42.44,-5.85l1.52,6.48l-1.62,1.1l0,1.25l8.52,0l0,-1.52l-1.67,-1.09l-7.53,-30.53l-5.07,0c-2.41,9.62 -5.02,21.01 -7.32,30.68l-1.67,0.94l0,1.52l6.58,0l0,-1.52l-1.72,-0.88l1.52,-6.43l8.46,0zm-4.23,-18.3l3.55,15.47l-7.16,0c1.21,-5.43 2.56,-11.39 3.56,-15.47l0.05,0zm30.11,-2.77l1.67,5.28l2.35,0l-0.21,-8.36c-6.43,0 -12.85,0 -19.34,0l-0.15,8.36l2.35,0l1.57,-5.28l3.34,0c0,8.94 0,17.83 0,26.71l-1.98,1.52l0,1.67c2.71,0 6.37,0 9.09,0l0,-1.67l-1.93,-1.52c0,-8.88 0,-17.77 0,-26.71l3.24,0zm9.98,27.29l-2.04,1.2l0,1.41l9.05,0l0,-1.41l-2.04,-1.2l0,-12.81l7.32,0l0,12.81l-1.94,1.2l0,1.41l8.94,0l0,-1.41l-1.99,-1.2l0,-27.66l1.68,-1.3l0,-1.41l-8.37,0l0,1.41l1.68,1.3l0,12.03l-7.32,0l0,-12.03l1.67,-1.3l0,-1.41l-8.31,0l0,1.41l1.67,1.3l0,27.66zm36.8,-31.16l0,31l-2.35,1.25l0,1.52l9.98,0l0,-1.52l-2.35,-1.25l0,-14.43l8.47,0l0,14.43l-2.3,1.25l0,1.52l9.93,0l0,-1.52l-2.35,-1.25l0,-31l1.98,-1.36l0,-1.51l-9.25,0l0,1.51l1.99,1.36l0,13.59l-8.47,0l0,-13.59l1.99,-1.36l0,-1.51l-9.25,0l0,1.51l1.98,1.36zm43.81,33.77l0,-7.37l-2.2,0l-1.67,4.39l-7.79,0l0,-0.26c0.83,-0.26 1.04,-0.68 1.04,-1.46l0,-10.2l4.29,0l1.31,2.41l1.46,0l0,-7.95l-1.46,0l-1.31,2.56l-4.29,0l0,-12.18l6.17,0l1.36,4.45l2.46,0l0,-7.37l-16.83,0l0,1.25l1.72,1.31l0,27.55l-2.04,1.46l0,1.41l17.78,0zm21.95,0l-0.05,-7.37l-2.15,0l-1.67,4.39c-2.61,0 -4.7,0 -7.32,0l0,-0.21c0,0 1.05,-0.73 1.05,-1.51c0,-8.52 0,-17.05 0,-25.57l1.67,-1.3l0,-1.41l-8.52,0l0,1.41l1.73,1.3c0,9.15 0,18.25 0,27.4l-2.04,1.46l0,1.41l17.3,0zm22.69,-25.3c0,-5.8 -4.29,-7.68 -9.36,-7.68l-9.57,0l0,1.41l1.73,1.3l0,27.4l-2.04,1.46l0,1.41l8.99,0l0,-1.41l-1.99,-1.46l0,-9.1l2.77,0c5.18,0 9.47,-1.52 9.47,-7.48l0,-5.85zm-9.31,-4.65c3.14,0 4.18,1.72 4.18,4.65l0,5.85c0,2.93 -1.15,4.66 -4.23,4.66l-2.88,0l0,-15.16l2.93,0zm31.42,29.95l0,-7.37l-2.2,0l-1.67,4.39l-7.79,0l0,-0.26c0.84,-0.26 1.05,-0.68 1.05,-1.46l0,-10.2l4.28,0l1.31,2.41l1.46,0l0,-7.95l-1.46,0l-1.31,2.56l-4.28,0l0,-12.18l6.16,0l1.36,4.45l2.46,0l0,-7.37l-16.83,0l0,1.25l1.72,1.31l0,27.55l-2.04,1.46l0,1.41l17.78,0zm14.63,-29.95c3.19,0 4.18,1.72 4.18,4.65c0,1.36 0,2.88 0,4.29c0,2.92 -1.15,4.65 -4.23,4.65l-2.87,0c0,-5.07 0,-8.52 0,-13.59l2.92,0zm3.71,25.66c0.94,2.51 1.26,4.66 4.29,4.6c1.05,0 2.51,-0.15 3.5,-0.62l0,-1.94c-1.46,0.26 -2.25,-1.46 -2.72,-2.72c-0.73,-2.03 -1.46,-4.02 -2.19,-6.06c-0.52,-1.41 -1.1,-2.3 -2.51,-3.08c2.98,-0.63 5.23,-2.88 5.23,-6.9c0,-1.41 0,-2.93 0,-4.29c0,-5.8 -4.24,-7.68 -9.31,-7.68l-9.56,0l0,1.41l1.67,1.3c0,9.05 0,18.3 0,27.4l-1.99,1.46l0,1.41c2.72,0 6.22,0 8.99,0l0,-1.41l-1.98,-1.46c0,-2.98 0,-7.74 0,-10.62c2.72,0 3.34,0.68 4.28,3.14l2.3,6.06z"/>
  </g>
  <g fill="#FFF7F7F7" transform="translate(63.84869384765625,-7.395699977874756) scale(1.2999999523162842) " id="SvgjsG1027">
   <path id="svg_2" fill=" #FFF7F7F7"
         d="m-25.302475,51.956858c-1.02,0 -1.984,0.229 -2.854,0.634c0.463,0.43 0.756,1.036 0.756,1.716c0,1.299 -1.053,2.352 -2.351,2.352c-0.68,0 -1.286,-0.292 -1.718,-0.754c-0.4,0.868 -0.632,1.832 -0.632,2.853c0,3.756 3.044,6.799 6.799,6.799s6.8,-3.043 6.8,-6.799c0,-3.758 -3.045,-6.801 -6.8,-6.801z"/>
   <path id="svg_3" fill=" #FFF7F7F7"
         d="m25.880525,38.961858c4.09,-4.834 7.106,-10.607 8.67,-16.953c-8.578,9.088 -23.557,15.115 -40.615,15.115c-17.059,0 -32.039,-6.027 -40.617,-15.115c1.589,6.446 4.679,12.299 8.868,17.18c-6.443,4.13 -10.717,11.347 -10.717,19.568c0,12.829 10.4,23.229 23.229,23.229c8.184,0 15.376,-4.236 19.513,-10.63c4.138,6.394 11.328,10.63 19.514,10.63c12.829,0 23.228,-10.399 23.228,-23.229c-0.002,-8.372 -4.431,-15.706 -11.073,-19.795zm-51.183,35.444c-8.643,0 -15.649,-7.006 -15.649,-15.649c0,-8.643 7.006,-15.651 15.649,-15.651s15.651,7.009 15.651,15.651c0.001,8.643 -7.008,15.649 -15.651,15.649zm39.027,0c-8.645,0 -15.65,-7.006 -15.65,-15.649c0,-8.643 7.006,-15.651 15.65,-15.651c8.643,0 15.649,7.009 15.649,15.651c0,8.643 -7.007,15.649 -15.649,15.649z"/>
   <path id="svg_4" fill=" #FFF7F7F7"
         d="m18.171525,56.657858c-1.298,0 -2.351,-1.053 -2.351,-2.352c0,-0.68 0.293,-1.286 0.754,-1.716c-0.867,-0.404 -1.832,-0.634 -2.851,-0.634c-3.757,0 -6.802,3.043 -6.802,6.8c0,3.756 3.045,6.799 6.802,6.799c3.754,0 6.799,-3.043 6.799,-6.799c0,-1.021 -0.231,-1.984 -0.635,-2.853c-0.428,0.463 -1.036,0.755 -1.716,0.755z"/>
   <polygon id="svg_5" points="-5.789475172758102,94.7158553302288 -12.69647666811943,82.99085685610771 -5.789475172758102,75.56885978579521 1.1175263226032257,82.99085685610771 "/>
   <path id="svg_6" fill=" #FFF7F7F7"
         d="m-7.785475,28.745858l-15.899,-6.125l0,9.812c5.498,1.509 11.461,2.315 17.62,2.315c4.895,0 9.666,-0.511 14.177,-1.476l0,-10.65l-15.898,6.124z"/>
   <polygon id="svg_7" points="-7.785473555326462,26.602858275175095 -36.4144751727581,15.573857992887497 -7.785473555326462,6.093858450651169 20.845526963472366,15.573857992887497 "/>
  </g>
 </g>
</svg>