<svg height="512" viewBox="0 0 512 512" width="512" xmlns="http://www.w3.org/2000/svg"><g id="filled_outline" data-name="filled outline"><path d="m204.373 283.344-24.508-4.9a108 108 0 0 0 -55.333 3.445l-4.37 1.457-16.162-31.581 8-44.211h16l8-24-24-16-21.765 2.146a470.017 470.017 0 0 0 -37.235 83.56l-1.455 4.365a34 34 0 0 0 3.42 28.775l.791 1.265a172 172 0 0 0 124.522 79.512l3.042.38z" fill="#fdc9a6"/><path d="m312 283.344 24.508-4.9a108 108 0 0 1 55.333 3.445l4.37 1.457 16.162-31.579-8-44.211h-16l-8-24 24-16 21.765 2.146a470.017 470.017 0 0 1 37.238 83.56l1.455 4.365a34 34 0 0 1 -3.424 28.772l-.79 1.265a172 172 0 0 1 -124.517 79.51l-3.042.38z" fill="#fdc9a6"/><path d="m151.739 335.554a8 8 0 0 1 -7.281-4.689l-10.526-23.158a8 8 0 0 1 14.566-6.621l8.275 18.206 36.674-1.834a8 8 0 1 1 .8 15.981l-42.105 2.1c-.135.012-.269.015-.403.015z" fill="#f6bb92"/><path d="m364.634 335.554c-.134 0-.267 0-.4-.01l-42.105-2.1a8 8 0 1 1 .8-15.981l36.674 1.834 8.275-18.206a8 8 0 0 1 14.566 6.621l-10.526 23.158a8 8 0 0 1 -7.284 4.684z" fill="#f6bb92"/><path d="m256 247.554-2.633-5.267a19.417 19.417 0 0 0 -17.367-10.733 19.417 19.417 0 0 0 -17.367 10.733l-2.633 5.267a15.977 15.977 0 0 0 -13.777 24.107c-.733-.068-1.473-.107-2.223-.107a24 24 0 0 0 -17.884 40 23.984 23.984 0 0 0 2.07 34.045 15.983 15.983 0 0 0 2.527 29.042 16 16 0 0 0 13.287 24.913c.455 0 .9-.031 1.348-.068a24 24 0 0 0 44.317 2.4 13.257 13.257 0 0 0 10.335-12.927z" fill="#ffb3b3"/><path d="m256 247.554 2.633-5.267a19.417 19.417 0 0 1 17.367-10.733 19.417 19.417 0 0 1 17.367 10.733l2.633 5.267a15.977 15.977 0 0 1 13.777 24.107c.733-.068 1.473-.107 2.223-.107a24 24 0 0 1 17.884 40 23.984 23.984 0 0 1 -2.07 34.045 15.983 15.983 0 0 1 -2.527 29.042 16 16 0 0 1 -13.287 24.913c-.455 0-.9-.031-1.348-.068a24 24 0 0 1 -44.317 2.4 13.257 13.257 0 0 1 -10.335-12.927z" fill="#f0a9a9"/><g fill="#dc9b9b"><path d="m277.9 256.448a24.085 24.085 0 0 0 -21.9 4.711 24.083 24.083 0 0 0 -21.9-4.711 8 8 0 1 0 4.322 15.405 8.038 8.038 0 0 1 7.762 1.974 7.886 7.886 0 0 1 2.116 3.551 7.994 7.994 0 0 0 15.365.112c.012-.039.028-.071.039-.112a7.888 7.888 0 0 1 2.117-3.552 8.039 8.039 0 0 1 7.761-1.973 8 8 0 1 0 4.322-15.405z"/><path d="m218.564 310.211a8.033 8.033 0 0 1 -5.1 6.169 7.883 7.883 0 0 1 -4.117.393 8 8 0 1 0 -2.686 15.772 23.818 23.818 0 0 0 4 .339 24.015 24.015 0 0 0 23.677-19.984 8 8 0 0 0 -15.774-2.686z"/><path d="m206.925 349.7a8 8 0 0 0 -2.919-10.93 24.018 24.018 0 0 0 -24.012 0 8 8 0 0 0 8.012 13.85 8.051 8.051 0 0 1 7.988 0 8 8 0 0 0 10.931-2.92z"/><path d="m200 279.554a16.029 16.029 0 0 1 15.092 10.666 8 8 0 1 0 15.086-5.332 32.056 32.056 0 0 0 -30.178-21.334 8 8 0 0 0 0 16z"/><path d="m231.732 363.525a7.965 7.965 0 0 1 3.182-10.653 8 8 0 1 0 -7.844-13.946 24.08 24.08 0 0 0 -12.235 20.433 23.947 23.947 0 0 0 -8.3 2.642 8 8 0 1 0 7.57 14.1 8.039 8.039 0 0 1 8.006.237 7.878 7.878 0 0 1 2.837 3 8 8 0 0 0 14.1-7.569 23.983 23.983 0 0 0 -7.316-8.244z"/><path d="m292.97 331.379a24.06 24.06 0 0 0 8.369 1.5 23.818 23.818 0 0 0 4-.339 8 8 0 1 0 -2.686-15.772 7.9 7.9 0 0 1 -4.116-.392 8.036 8.036 0 0 1 -5.105-6.17 8 8 0 0 0 -15.774 2.686 24.085 24.085 0 0 0 15.312 18.487z"/><path d="m332.006 338.77a24.018 24.018 0 0 0 -24.012 0 8 8 0 0 0 8.012 13.85 8.051 8.051 0 0 1 7.988 0 8 8 0 0 0 8.012-13.85z"/><path d="m286.7 295.1a7.994 7.994 0 0 0 10.209-4.877 16.029 16.029 0 0 1 15.091-10.669 8 8 0 0 0 0-16 32.056 32.056 0 0 0 -30.178 21.334 8 8 0 0 0 4.878 10.212z"/><path d="m305.461 362a23.945 23.945 0 0 0 -8.3-2.641 24.082 24.082 0 0 0 -12.235-20.434 8 8 0 0 0 -7.844 13.946 7.965 7.965 0 0 1 3.182 10.653 23.973 23.973 0 0 0 -7.316 8.245 8 8 0 1 0 14.1 7.569 7.873 7.873 0 0 1 2.838-3 8.039 8.039 0 0 1 8-.237 8 8 0 1 0 7.57-14.1z"/></g><path d="m168 247.554a8 8 0 0 1 -8-8v-16a8 8 0 1 1 16 0v16a8 8 0 0 1 -8 8z" fill="#fbb540"/><path d="m144 255.554a7.974 7.974 0 0 1 -5.657-2.343l-8-8a8 8 0 0 1 11.314-11.311l8 8a8 8 0 0 1 -5.657 13.654z" fill="#fbb540"/><path d="m344 247.554a8 8 0 0 1 -8-8v-16a8 8 0 1 1 16 0v16a8 8 0 0 1 -8 8z" fill="#fbb540"/><path d="m368 255.554a8 8 0 0 1 -5.657-13.657l8-8a8 8 0 0 1 11.314 11.314l-8 8a7.974 7.974 0 0 1 -5.657 2.343z" fill="#fbb540"/><path d="m288 192a71.556 71.556 0 0 1 -64 0v-48h64z" fill="#0296e5"/><path d="m288 144v9.7l-32 22.3-32-22.3v-9.7z" fill="#026ca2"/><path d="m324.9 154.184a32.777 32.777 0 0 1 -23.2-9.622l-3.351-3.352a8 8 0 0 1 11.308-11.31l3.351 3.351a16.8 16.8 0 0 0 19.414 3.15 8 8 0 0 1 7.156 14.31 32.782 32.782 0 0 1 -14.678 3.473z" fill="#026ca2"/><path d="m288 144v9.7l-32 22.3-32-22.3v-9.7z" fill="#026ca2"/><path d="m256 168-56.569-39.431 56.569-40.569 56.569 40.569z" fill="#0296e5"/><path d="m219.031 331.379a24.085 24.085 0 0 0 15.307-18.479 8 8 0 0 0 -15.774-2.686 8.033 8.033 0 0 1 -5.1 6.169 7.883 7.883 0 0 1 -4.117.393 8 8 0 1 0 -2.686 15.772 23.818 23.818 0 0 0 4 .339 24.065 24.065 0 0 0 8.37-1.508z"/><path d="m203.276 372.835a8 8 0 0 0 10.833 3.262 8.039 8.039 0 0 1 8.006.237 7.878 7.878 0 0 1 2.837 3 8 8 0 0 0 14.1-7.569 23.983 23.983 0 0 0 -7.316-8.245 7.965 7.965 0 0 1 3.182-10.653 8 8 0 1 0 -7.844-13.946 24.08 24.08 0 0 0 -12.235 20.433 23.947 23.947 0 0 0 -8.3 2.642 8 8 0 0 0 -3.263 10.839z"/><path d="m292.97 331.379a24.06 24.06 0 0 0 8.369 1.5 23.818 23.818 0 0 0 4-.339 8 8 0 1 0 -2.686-15.772 7.9 7.9 0 0 1 -4.116-.392 8.036 8.036 0 0 1 -5.105-6.17 8 8 0 0 0 -15.774 2.686 24.085 24.085 0 0 0 15.312 18.487z"/><path d="m276.215 382.6a7.994 7.994 0 0 0 10.833-3.263 7.873 7.873 0 0 1 2.838-3 8.039 8.039 0 0 1 8-.237 8 8 0 1 0 7.57-14.1 23.945 23.945 0 0 0 -8.3-2.641 24.082 24.082 0 0 0 -12.235-20.434 8 8 0 0 0 -7.844 13.946 7.965 7.965 0 0 1 3.182 10.653 23.973 23.973 0 0 0 -7.316 8.245 8 8 0 0 0 3.272 10.831z"/><path d="m48.972 291.9a179.754 179.754 0 0 0 124.033 82.3 24.083 24.083 0 0 0 3.645 3.787 24.025 24.025 0 0 0 19.456 29.254 32 32 0 0 0 55.043 1.253 21.168 21.168 0 0 0 4.851-2.9 21.168 21.168 0 0 0 4.851 2.9 32 32 0 0 0 55.042-1.253 24.025 24.025 0 0 0 19.457-29.254 24.108 24.108 0 0 0 3.049-3.055 179.265 179.265 0 0 0 129-83.031l.789-1.262a41.869 41.869 0 0 0 4.23-35.541l-1.455-4.366a479.194 479.194 0 0 0 -37.872-84.982 8 8 0 0 0 -6.171-4.009l-21.765-2.146a7.983 7.983 0 0 0 -5.222 1.305l-24 16a8 8 0 0 0 -3.153 9.186l8 24a8 8 0 0 0 7.59 5.47h9.317l6.33 34.974-11.807 23.07a116.188 116.188 0 0 0 -57.271-3l-2.36.472a31.935 31.935 0 0 0 -12.6-6.509q.021-.5.021-1.007a24.044 24.044 0 0 0 -18.769-23.426l-.71-1.419a27.426 27.426 0 0 0 -44.521-6.5 27.426 27.426 0 0 0 -44.521 6.5l-.71 1.419a24.044 24.044 0 0 0 -18.769 23.424q0 .5.021 1.007a31.9 31.9 0 0 0 -11.756 5.822 116.178 116.178 0 0 0 -56.1 3.218l-11.809-23.073 6.329-34.974h9.315a8 8 0 0 0 7.59-5.47l8-24a8 8 0 0 0 -3.152-9.186l-24-16a7.992 7.992 0 0 0 -5.223-1.305l-21.765 2.146a8 8 0 0 0 -6.171 4.009 479.227 479.227 0 0 0 -37.872 84.982l-1.455 4.37a41.868 41.868 0 0 0 4.229 35.538zm329.5 5.212a8 8 0 0 0 -10.594 3.972l-8.278 18.208-16.939-.847a31.879 31.879 0 0 0 -2.948-6.891 31.972 31.972 0 0 0 2.674-26.019 100.171 100.171 0 0 1 46.925 3.942l4.37 1.456a8 8 0 0 0 9.65-3.944l16.162-31.58a7.99 7.99 0 0 0 .751-5.069l-8-44.21a8 8 0 0 0 -7.872-6.576h-10.234l-4.239-12.733 16.533-11.021 14.773 1.457a463.071 463.071 0 0 1 34.58 78.537l1.455 4.365a25.922 25.922 0 0 1 -2.619 22.005l-.789 1.262a163.274 163.274 0 0 1 -109.9 74.465 24 24 0 0 0 -5-13.065 32.02 32.02 0 0 0 4.3-10.328l21 1.05c.135.007.268.01.4.01a8 8 0 0 0 7.281-4.689l10.526-23.158a8 8 0 0 0 -3.971-10.597zm-114.472-20.58a7.9 7.9 0 0 1 1.819-2.706 8.039 8.039 0 0 1 7.761-1.973 8 8 0 1 0 4.322-15.405 24.049 24.049 0 0 0 -13.9.288v-7.293l1.789-3.578a11.416 11.416 0 0 1 20.422 0l2.634 5.267a8 8 0 0 0 7.153 4.422 8.009 8.009 0 0 1 8 8 7.859 7.859 0 0 1 -.07 1.056 32.049 32.049 0 0 0 -22.108 20.278 8 8 0 1 0 15.086 5.332 16.028 16.028 0 0 1 13.689-10.6c.122-.011.237-.017.355-.026.348-.022.7-.041 1.048-.041a16 16 0 0 1 11.924 26.664 8 8 0 0 0 0 10.673 15.919 15.919 0 0 1 1.513 19.3 23.867 23.867 0 0 0 -17.443 2.579 8 8 0 0 0 8.012 13.85 8.048 8.048 0 0 1 7.876-.055l.017.011a7.984 7.984 0 0 1 -1.258 14.516 8 8 0 0 0 -3.993 12.013 8 8 0 0 1 -6.648 12.45c-.229 0-.453-.021-.677-.04a7.992 7.992 0 0 0 -8.222 5.328 16 16 0 0 1 -29.548 1.6 8 8 0 0 0 -5.455-4.353 5.229 5.229 0 0 1 -4.1-5.127zm-59.994 62.238a23.867 23.867 0 0 0 -17.443-2.579 15.919 15.919 0 0 1 1.513-19.3 8 8 0 0 0 0-10.673 16 16 0 0 1 11.924-26.664c.352 0 .7.019 1.048.041.118.009.233.015.355.026a16.028 16.028 0 0 1 13.689 10.6 8 8 0 1 0 15.086-5.332 32.049 32.049 0 0 0 -22.108-20.279 7.859 7.859 0 0 1 -.07-1.056 8.009 8.009 0 0 1 8-8 8 8 0 0 0 7.155-4.422l2.634-5.267a11.416 11.416 0 0 1 20.422 0l1.789 3.578v7.293a24.048 24.048 0 0 0 -13.9-.288 8 8 0 1 0 4.322 15.405 8.038 8.038 0 0 1 7.762 1.974 7.885 7.885 0 0 1 1.818 2.7v112.432a5.229 5.229 0 0 1 -4.1 5.127 8 8 0 0 0 -5.455 4.353 16 16 0 0 1 -29.549-1.6 8 8 0 0 0 -7.546-5.356q-.338 0-.677.028c-.224.019-.447.04-.675.04a8 8 0 0 1 -6.648-12.449 8 8 0 0 0 -3.993-12.013 7.984 7.984 0 0 1 -1.258-14.516l.017-.011a8.048 8.048 0 0 1 7.876.055 8 8 0 0 0 8.012-13.85zm-144.874-78.615 1.455-4.365a463.15 463.15 0 0 1 34.58-78.537l14.773-1.453 16.539 11.025-4.245 12.733h-10.234a8 8 0 0 0 -7.872 6.576l-8 44.21a7.994 7.994 0 0 0 .751 5.07l16.162 31.578a8 8 0 0 0 9.65 3.945l4.371-1.456a100.177 100.177 0 0 1 42.735-4.5 32.009 32.009 0 0 0 2.49 26.576 31.884 31.884 0 0 0 -3.016 7.113l-12.5.625-8.271-18.209a8 8 0 0 0 -14.566 6.621l10.526 23.158a8 8 0 0 0 7.281 4.689c.134 0 .268 0 .4-.01l16.682-.834a32.02 32.02 0 0 0 4.243 10.112 24.019 24.019 0 0 0 -4.919 12.229 163.774 163.774 0 0 1 -105.606-73.626l-.791-1.268a25.918 25.918 0 0 1 -2.618-22.002z"/><path d="m160 223.554v16a8 8 0 0 0 16 0v-16a8 8 0 1 0 -16 0z"/><path d="m130.343 233.9a8 8 0 0 0 0 11.314l8 8a8 8 0 0 0 11.314-11.314l-8-8a8 8 0 0 0 -11.314 0z"/><path d="m344 247.554a8 8 0 0 0 8-8v-16a8 8 0 1 0 -16 0v16a8 8 0 0 0 8 8z"/><path d="m362.343 253.211a8 8 0 0 0 11.314 0l8-8a8 8 0 0 0 -11.314-11.311l-8 8a8 8 0 0 0 0 11.311z"/><path d="m220.422 199.155a79.928 79.928 0 0 0 71.156 0 8 8 0 0 0 4.422-7.155v-42.13l6.506-4.535a32.752 32.752 0 0 0 37.072 5.374 8 8 0 0 0 -7.156-14.31 16.8 16.8 0 0 1 -16.191-.631l.913-.637a8 8 0 0 0 .086-13.064l-56.568-40.567a8 8 0 0 0 -9.324 0l-56.568 40.567a8 8 0 0 0 .086 13.064l21.144 14.739v42.13a8 8 0 0 0 4.422 7.155zm59.578-12.31a63.954 63.954 0 0 1 -48 0v-25.822l19.425 13.54a8 8 0 0 0 9.15 0l19.425-13.54zm-66.712-58.369 42.712-30.631 42.712 30.631-42.712 29.772z"/></g></svg>